<?xml version="1.0" encoding="UTF-8" standalone="no"?>
<!DOCTYPE svg PUBLIC "-//W3C//DTD SVG 1.1//EN"
 "http://www.w3.org/Graphics/SVG/1.1/DTD/svg11.dtd">
<!-- Generated by graphviz version 2.38.0 (20140413.2041)
 -->
<!-- Title: Main Pages: 1 -->
<svg width="1822pt" height="2121pt"
 viewBox="0.00 0.00 1822.33 2121.46" xmlns="http://www.w3.org/2000/svg" xmlns:xlink="http://www.w3.org/1999/xlink">
<g id="graph0" class="graph" transform="scale(1 1) rotate(0) translate(4 2117.46)">
<title>Main</title>
<polygon fill="white" stroke="none" points="-4,4 -4,-2117.46 1818.33,-2117.46 1818.33,4 -4,4"/>
<text text-anchor="middle" x="907.166" y="-6.8" font-family="Times,serif" font-size="14.00">Main</text>
<!-- n4 -->
<g id="node1" class="node"><title>n4</title>
<polygon fill="none" stroke="black" points="1436.27,-1778.77 1436.27,-1793.68 1416.26,-1804.23 1387.95,-1804.23 1367.94,-1793.68 1367.94,-1778.77 1387.95,-1768.23 1416.26,-1768.23 1436.27,-1778.77"/>
<text text-anchor="middle" x="1402.1" y="-1782.03" font-family="Times,serif" font-size="14.00">LED1</text>
</g>
<!-- x54 -->
<g id="node77" class="node"><title>x54</title>
<path fill="none" stroke="black" d="M1484.44,-1801.23C1484.44,-1801.23 1523.88,-1801.23 1523.88,-1801.23 1529.88,-1801.23 1535.88,-1807.23 1535.88,-1813.23 1535.88,-1813.23 1535.88,-1877.23 1535.88,-1877.23 1535.88,-1883.23 1529.88,-1889.23 1523.88,-1889.23 1523.88,-1889.23 1484.44,-1889.23 1484.44,-1889.23 1478.44,-1889.23 1472.44,-1883.23 1472.44,-1877.23 1472.44,-1877.23 1472.44,-1813.23 1472.44,-1813.23 1472.44,-1807.23 1478.44,-1801.23 1484.44,-1801.23"/>
<text text-anchor="middle" x="1504.16" y="-1874.03" font-family="Times,serif" font-size="14.00">0:0 &#45; 3:3</text>
<polyline fill="none" stroke="black" points="1472.44,-1867.23 1535.88,-1867.23 "/>
<text text-anchor="middle" x="1504.16" y="-1852.03" font-family="Times,serif" font-size="14.00">0:0 &#45; 2:2</text>
<polyline fill="none" stroke="black" points="1472.44,-1845.23 1535.88,-1845.23 "/>
<text text-anchor="middle" x="1504.16" y="-1830.03" font-family="Times,serif" font-size="14.00">0:0 &#45; 1:1</text>
<polyline fill="none" stroke="black" points="1472.44,-1823.23 1535.88,-1823.23 "/>
<text text-anchor="middle" x="1504.16" y="-1808.03" font-family="Times,serif" font-size="14.00">0:0 &#45; 0:0</text>
</g>
<!-- n4&#45;&gt;x54 -->
<g id="edge55" class="edge"><title>n4:e&#45;&gt;x54:s0:w</title>
<path fill="none" stroke="#d95f02" d="M1436.44,-1786.23C1452.01,-1786.23 1453.13,-1802.41 1462.61,-1809.24"/>
<polygon fill="#d95f02" stroke="#d95f02" points="1461.85,-1812.67 1472.44,-1812.23 1463.88,-1805.97 1461.85,-1812.67"/>
</g>
<!-- n5 -->
<g id="node2" class="node"><title>n5</title>
<polygon fill="none" stroke="black" points="1436.27,-1671.77 1436.27,-1686.68 1416.26,-1697.23 1387.95,-1697.23 1367.94,-1686.68 1367.94,-1671.77 1387.95,-1661.23 1416.26,-1661.23 1436.27,-1671.77"/>
<text text-anchor="middle" x="1402.1" y="-1675.03" font-family="Times,serif" font-size="14.00">LED2</text>
</g>
<!-- n5&#45;&gt;x54 -->
<g id="edge57" class="edge"><title>n5:e&#45;&gt;x54:s1:w</title>
<path fill="none" stroke="#66a61e" d="M1436.44,-1679.23C1503.29,-1679.23 1412.72,-1817.74 1462.36,-1832.89"/>
<polygon fill="#66a61e" stroke="#66a61e" points="1462.06,-1836.38 1472.44,-1834.23 1462.98,-1829.44 1462.06,-1836.38"/>
</g>
<!-- n6 -->
<g id="node3" class="node"><title>n6</title>
<polygon fill="none" stroke="black" points="1436.27,-1997.77 1436.27,-2012.68 1416.26,-2023.23 1387.95,-2023.23 1367.94,-2012.68 1367.94,-1997.77 1387.95,-1987.23 1416.26,-1987.23 1436.27,-1997.77"/>
<text text-anchor="middle" x="1402.1" y="-2001.03" font-family="Times,serif" font-size="14.00">LED3</text>
</g>
<!-- n6&#45;&gt;x54 -->
<g id="edge59" class="edge"><title>n6:e&#45;&gt;x54:s2:w</title>
<path fill="none" stroke="#d95f02" d="M1436.44,-2005.23C1500.71,-2005.23 1415.13,-1872.63 1462.42,-1857.6"/>
<polygon fill="#d95f02" stroke="#d95f02" points="1463.01,-1861.06 1472.44,-1856.23 1462.05,-1854.12 1463.01,-1861.06"/>
</g>
<!-- n7 -->
<g id="node4" class="node"><title>n7</title>
<polygon fill="none" stroke="black" points="1436.27,-1883.77 1436.27,-1898.68 1416.26,-1909.23 1387.95,-1909.23 1367.94,-1898.68 1367.94,-1883.77 1387.95,-1873.23 1416.26,-1873.23 1436.27,-1883.77"/>
<text text-anchor="middle" x="1402.1" y="-1887.03" font-family="Times,serif" font-size="14.00">LED4</text>
</g>
<!-- n7&#45;&gt;x54 -->
<g id="edge61" class="edge"><title>n7:e&#45;&gt;x54:s3:w</title>
<path fill="none" stroke="#d95f02" d="M1436.44,-1891.23C1449.46,-1891.23 1453.67,-1883.6 1462.57,-1880.03"/>
<polygon fill="#d95f02" stroke="#d95f02" points="1463.23,-1883.47 1472.44,-1878.23 1461.97,-1876.58 1463.23,-1883.47"/>
</g>
<!-- n8 -->
<g id="node5" class="node"><title>n8</title>
<polygon fill="none" stroke="black" points="54,-1768.77 54,-1783.68 38.1838,-1794.23 15.8162,-1794.23 1.06581e-14,-1783.68 7.10543e-15,-1768.77 15.8162,-1758.23 38.1838,-1758.23 54,-1768.77"/>
<text text-anchor="middle" x="27" y="-1772.03" font-family="Times,serif" font-size="14.00">clk</text>
</g>
<!-- c30 -->
<g id="node56" class="node"><title>c30</title>
<polygon fill="none" stroke="black" points="1195.08,-1746.23 1195.08,-1812.23 1331.77,-1812.23 1331.77,-1746.23 1195.08,-1746.23"/>
<text text-anchor="middle" x="1208.14" y="-1797.03" font-family="Times,serif" font-size="14.00">C</text>
<polyline fill="none" stroke="black" points="1195.08,-1790.23 1221.19,-1790.23 "/>
<text text-anchor="middle" x="1208.14" y="-1775.03" font-family="Times,serif" font-size="14.00">D</text>
<polyline fill="none" stroke="black" points="1195.08,-1768.23 1221.19,-1768.23 "/>
<text text-anchor="middle" x="1208.14" y="-1753.03" font-family="Times,serif" font-size="14.00">E</text>
<polyline fill="none" stroke="black" points="1221.19,-1746.23 1221.19,-1812.23 "/>
<text text-anchor="middle" x="1263.43" y="-1782.03" font-family="Times,serif" font-size="14.00">$187</text>
<text text-anchor="middle" x="1263.43" y="-1768.03" font-family="Times,serif" font-size="14.00">SB_DFFNE</text>
<polyline fill="none" stroke="black" points="1305.66,-1746.23 1305.66,-1812.23 "/>
<text text-anchor="middle" x="1318.72" y="-1775.03" font-family="Times,serif" font-size="14.00">Q</text>
</g>
<!-- n8&#45;&gt;c30 -->
<g id="edge62" class="edge"><title>n8:e&#45;&gt;c30:p26:w</title>
<path fill="none" stroke="#e6ab02" d="M54,-1776.23C71.1673,-1776.23 73.3526,-1786.03 90,-1790.23 174.616,-1811.54 197.6,-1814.23 284.858,-1814.23 284.858,-1814.23 284.858,-1814.23 921.52,-1814.23 1039.79,-1814.23 1071.58,-1801.95 1184.96,-1801.26"/>
<polygon fill="#e6ab02" stroke="#e6ab02" points="1185.09,-1804.76 1195.08,-1801.23 1185.07,-1797.76 1185.09,-1804.76"/>
</g>
<!-- c31 -->
<g id="node59" class="node"><title>c31</title>
<polygon fill="none" stroke="black" points="1195.08,-1598.23 1195.08,-1664.23 1331.77,-1664.23 1331.77,-1598.23 1195.08,-1598.23"/>
<text text-anchor="middle" x="1208.14" y="-1649.03" font-family="Times,serif" font-size="14.00">C</text>
<polyline fill="none" stroke="black" points="1195.08,-1642.23 1221.19,-1642.23 "/>
<text text-anchor="middle" x="1208.14" y="-1627.03" font-family="Times,serif" font-size="14.00">D</text>
<polyline fill="none" stroke="black" points="1195.08,-1620.23 1221.19,-1620.23 "/>
<text text-anchor="middle" x="1208.14" y="-1605.03" font-family="Times,serif" font-size="14.00">E</text>
<polyline fill="none" stroke="black" points="1221.19,-1598.23 1221.19,-1664.23 "/>
<text text-anchor="middle" x="1263.43" y="-1634.03" font-family="Times,serif" font-size="14.00">$188</text>
<text text-anchor="middle" x="1263.43" y="-1620.03" font-family="Times,serif" font-size="14.00">SB_DFFNE</text>
<polyline fill="none" stroke="black" points="1305.66,-1598.23 1305.66,-1664.23 "/>
<text text-anchor="middle" x="1318.72" y="-1627.03" font-family="Times,serif" font-size="14.00">Q</text>
</g>
<!-- n8&#45;&gt;c31 -->
<g id="edge63" class="edge"><title>n8:e&#45;&gt;c31:p26:w</title>
<path fill="none" stroke="#e6ab02" d="M54,-1776.23C156.604,-1776.23 182.255,-1776.23 284.858,-1776.23 284.858,-1776.23 284.858,-1776.23 396.658,-1776.23 752.281,-1776.23 834.486,-1655.56 1184.9,-1653.26"/>
<polygon fill="#e6ab02" stroke="#e6ab02" points="1185.09,-1656.76 1195.08,-1653.23 1185.07,-1649.76 1185.09,-1656.76"/>
</g>
<!-- c32 -->
<g id="node62" class="node"><title>c32</title>
<polygon fill="none" stroke="black" points="1195.08,-2013.23 1195.08,-2079.23 1331.77,-2079.23 1331.77,-2013.23 1195.08,-2013.23"/>
<text text-anchor="middle" x="1208.14" y="-2064.03" font-family="Times,serif" font-size="14.00">C</text>
<polyline fill="none" stroke="black" points="1195.08,-2057.23 1221.19,-2057.23 "/>
<text text-anchor="middle" x="1208.14" y="-2042.03" font-family="Times,serif" font-size="14.00">D</text>
<polyline fill="none" stroke="black" points="1195.08,-2035.23 1221.19,-2035.23 "/>
<text text-anchor="middle" x="1208.14" y="-2020.03" font-family="Times,serif" font-size="14.00">E</text>
<polyline fill="none" stroke="black" points="1221.19,-2013.23 1221.19,-2079.23 "/>
<text text-anchor="middle" x="1263.43" y="-2049.03" font-family="Times,serif" font-size="14.00">$189</text>
<text text-anchor="middle" x="1263.43" y="-2035.03" font-family="Times,serif" font-size="14.00">SB_DFFNE</text>
<polyline fill="none" stroke="black" points="1305.66,-2013.23 1305.66,-2079.23 "/>
<text text-anchor="middle" x="1318.72" y="-2042.03" font-family="Times,serif" font-size="14.00">Q</text>
</g>
<!-- n8&#45;&gt;c32 -->
<g id="edge64" class="edge"><title>n8:e&#45;&gt;c32:p26:w</title>
<path fill="none" stroke="#e6ab02" d="M54,-1776.23C110.107,-1776.23 62.362,-1848.4 90,-1897.23 153.201,-2008.88 156.554,-2110.23 284.858,-2110.23 284.858,-2110.23 284.858,-2110.23 921.52,-2110.23 1027.48,-2110.23 1058.38,-2123.18 1159.08,-2090.23 1173.01,-2085.67 1175.7,-2074.8 1185.16,-2070.27"/>
<polygon fill="#e6ab02" stroke="#e6ab02" points="1185.99,-2073.67 1195.08,-2068.23 1184.58,-2066.81 1185.99,-2073.67"/>
</g>
<!-- c33 -->
<g id="node65" class="node"><title>c33</title>
<polygon fill="none" stroke="black" points="1195.08,-1865.23 1195.08,-1931.23 1331.77,-1931.23 1331.77,-1865.23 1195.08,-1865.23"/>
<text text-anchor="middle" x="1208.14" y="-1916.03" font-family="Times,serif" font-size="14.00">C</text>
<polyline fill="none" stroke="black" points="1195.08,-1909.23 1221.19,-1909.23 "/>
<text text-anchor="middle" x="1208.14" y="-1894.03" font-family="Times,serif" font-size="14.00">D</text>
<polyline fill="none" stroke="black" points="1195.08,-1887.23 1221.19,-1887.23 "/>
<text text-anchor="middle" x="1208.14" y="-1872.03" font-family="Times,serif" font-size="14.00">E</text>
<polyline fill="none" stroke="black" points="1221.19,-1865.23 1221.19,-1931.23 "/>
<text text-anchor="middle" x="1263.43" y="-1901.03" font-family="Times,serif" font-size="14.00">$190</text>
<text text-anchor="middle" x="1263.43" y="-1887.03" font-family="Times,serif" font-size="14.00">SB_DFFNE</text>
<polyline fill="none" stroke="black" points="1305.66,-1865.23 1305.66,-1931.23 "/>
<text text-anchor="middle" x="1318.72" y="-1894.03" font-family="Times,serif" font-size="14.00">Q</text>
</g>
<!-- n8&#45;&gt;c33 -->
<g id="edge65" class="edge"><title>n8:e&#45;&gt;c33:p26:w</title>
<path fill="none" stroke="#e6ab02" d="M54,-1776.23C77.9176,-1776.23 72.3458,-1800.09 90,-1816.23 169.878,-1889.23 176.642,-1962.23 284.858,-1962.23 284.858,-1962.23 284.858,-1962.23 921.52,-1962.23 1027.48,-1962.23 1058.38,-1975.18 1159.08,-1942.23 1173.01,-1937.67 1175.7,-1926.8 1185.16,-1922.27"/>
<polygon fill="#e6ab02" stroke="#e6ab02" points="1185.99,-1925.67 1195.08,-1920.23 1184.58,-1918.81 1185.99,-1925.67"/>
</g>
<!-- c34 -->
<g id="node67" class="node"><title>c34</title>
<polygon fill="none" stroke="black" points="90,-1020.23 90,-1064.23 218.138,-1064.23 218.138,-1020.23 90,-1020.23"/>
<text text-anchor="middle" x="103.055" y="-1049.03" font-family="Times,serif" font-size="14.00">C</text>
<polyline fill="none" stroke="black" points="90,-1042.23 116.11,-1042.23 "/>
<text text-anchor="middle" x="103.055" y="-1027.03" font-family="Times,serif" font-size="14.00">D</text>
<polyline fill="none" stroke="black" points="116.11,-1020.23 116.11,-1064.23 "/>
<text text-anchor="middle" x="154.069" y="-1045.03" font-family="Times,serif" font-size="14.00">$191</text>
<text text-anchor="middle" x="154.069" y="-1031.03" font-family="Times,serif" font-size="14.00">SB_DFFN</text>
<polyline fill="none" stroke="black" points="192.027,-1020.23 192.027,-1064.23 "/>
<text text-anchor="middle" x="205.083" y="-1038.03" font-family="Times,serif" font-size="14.00">Q</text>
</g>
<!-- n8&#45;&gt;c34 -->
<g id="edge66" class="edge"><title>n8:e&#45;&gt;c34:p26:w</title>
<path fill="none" stroke="#e6ab02" d="M54,-1776.23C211.253,-1776.23 -58.2554,-1085.34 79.8262,-1054.3"/>
<polygon fill="#e6ab02" stroke="#e6ab02" points="80.4244,-1057.76 90,-1053.23 79.6869,-1050.8 80.4244,-1057.76"/>
</g>
<!-- c35 -->
<g id="node70" class="node"><title>c35</title>
<polygon fill="none" stroke="black" points="1571.88,-512.225 1571.88,-578.225 1708.57,-578.225 1708.57,-512.225 1571.88,-512.225"/>
<text text-anchor="middle" x="1584.93" y="-563.025" font-family="Times,serif" font-size="14.00">C</text>
<polyline fill="none" stroke="black" points="1571.88,-556.225 1597.99,-556.225 "/>
<text text-anchor="middle" x="1584.93" y="-541.025" font-family="Times,serif" font-size="14.00">D</text>
<polyline fill="none" stroke="black" points="1571.88,-534.225 1597.99,-534.225 "/>
<text text-anchor="middle" x="1584.93" y="-519.025" font-family="Times,serif" font-size="14.00">E</text>
<polyline fill="none" stroke="black" points="1597.99,-512.225 1597.99,-578.225 "/>
<text text-anchor="middle" x="1640.22" y="-548.025" font-family="Times,serif" font-size="14.00">$192</text>
<text text-anchor="middle" x="1640.22" y="-534.025" font-family="Times,serif" font-size="14.00">SB_DFFNE</text>
<polyline fill="none" stroke="black" points="1682.46,-512.225 1682.46,-578.225 "/>
<text text-anchor="middle" x="1695.51" y="-541.025" font-family="Times,serif" font-size="14.00">Q</text>
</g>
<!-- n8&#45;&gt;c35 -->
<g id="edge67" class="edge"><title>n8:e&#45;&gt;c35:p26:w</title>
<path fill="none" stroke="#e6ab02" d="M54,-1776.23C96.6025,-1776.23 84.6775,-1052.49 90,-1010.23 143.522,-585.181 -143.542,-66.225 284.858,-66.225 284.858,-66.225 284.858,-66.225 1403.1,-66.225 1489.18,-66.225 1500.19,-128.894 1535.88,-207.225 1551.24,-240.949 1534.71,-518.442 1563.53,-561.594"/>
<polygon fill="#e6ab02" stroke="#e6ab02" points="1561.63,-564.536 1571.88,-567.225 1565.54,-558.732 1561.63,-564.536"/>
</g>
<!-- c36 -->
<g id="node74" class="node"><title>c36</title>
<polygon fill="none" stroke="black" points="1576.15,-394.225 1576.15,-438.225 1704.29,-438.225 1704.29,-394.225 1576.15,-394.225"/>
<text text-anchor="middle" x="1589.21" y="-423.025" font-family="Times,serif" font-size="14.00">C</text>
<polyline fill="none" stroke="black" points="1576.15,-416.225 1602.26,-416.225 "/>
<text text-anchor="middle" x="1589.21" y="-401.025" font-family="Times,serif" font-size="14.00">D</text>
<polyline fill="none" stroke="black" points="1602.26,-394.225 1602.26,-438.225 "/>
<text text-anchor="middle" x="1640.22" y="-419.025" font-family="Times,serif" font-size="14.00">$193</text>
<text text-anchor="middle" x="1640.22" y="-405.025" font-family="Times,serif" font-size="14.00">SB_DFFN</text>
<polyline fill="none" stroke="black" points="1678.18,-394.225 1678.18,-438.225 "/>
<text text-anchor="middle" x="1691.24" y="-412.025" font-family="Times,serif" font-size="14.00">Q</text>
</g>
<!-- n8&#45;&gt;c36 -->
<g id="edge68" class="edge"><title>n8:e&#45;&gt;c36:p26:w</title>
<path fill="none" stroke="#e6ab02" d="M54,-1776.23C101.455,-1776.23 59.6214,-104.682 90,-68.225 146.596,-0.30491 196.449,-28.225 284.858,-28.225 284.858,-28.225 284.858,-28.225 1403.1,-28.225 1467.68,-28.225 1497.63,-35.1968 1535.88,-87.225 1578.73,-145.515 1506.85,-400.525 1565.18,-425.289"/>
<polygon fill="#e6ab02" stroke="#e6ab02" points="1564.74,-428.77 1575.22,-427.225 1566.07,-421.896 1564.74,-428.77"/>
</g>
<!-- n9 -->
<g id="node6" class="node"><title>n9</title>
<polygon fill="none" stroke="black" points="395.658,-1060.23 353.5,-1042.23 395.658,-1024.23 437.815,-1042.23 395.658,-1060.23"/>
<text text-anchor="middle" x="395.658" y="-1038.03" font-family="Times,serif" font-size="14.00">count</text>
</g>
<!-- x0 -->
<g id="node10" class="node"><title>x0</title>
<path fill="none" stroke="black" d="M485.737,-1271.23C485.737,-1271.23 525.178,-1271.23 525.178,-1271.23 531.178,-1271.23 537.178,-1277.23 537.178,-1283.23 537.178,-1283.23 537.178,-1295.23 537.178,-1295.23 537.178,-1301.23 531.178,-1307.23 525.178,-1307.23 525.178,-1307.23 485.737,-1307.23 485.737,-1307.23 479.737,-1307.23 473.737,-1301.23 473.737,-1295.23 473.737,-1295.23 473.737,-1283.23 473.737,-1283.23 473.737,-1277.23 479.737,-1271.23 485.737,-1271.23"/>
<text text-anchor="middle" x="505.457" y="-1285.03" font-family="Times,serif" font-size="14.00">0:0 &#45; 0:0</text>
</g>
<!-- n9&#45;&gt;x0 -->
<g id="edge72" class="edge"><title>n9:e&#45;&gt;x0:s0:w</title>
<path fill="none" stroke="#d95f02" d="M437.737,-1042.23C489.305,-1042.23 428.161,-1255.71 463.88,-1285.73"/>
<polygon fill="#d95f02" stroke="#d95f02" points="463.142,-1289.19 473.737,-1289.23 465.479,-1282.59 463.142,-1289.19"/>
</g>
<!-- x1 -->
<g id="node11" class="node"><title>x1</title>
<path fill="none" stroke="black" d="M485.737,-1216.23C485.737,-1216.23 525.178,-1216.23 525.178,-1216.23 531.178,-1216.23 537.178,-1222.23 537.178,-1228.23 537.178,-1228.23 537.178,-1240.23 537.178,-1240.23 537.178,-1246.23 531.178,-1252.23 525.178,-1252.23 525.178,-1252.23 485.737,-1252.23 485.737,-1252.23 479.737,-1252.23 473.737,-1246.23 473.737,-1240.23 473.737,-1240.23 473.737,-1228.23 473.737,-1228.23 473.737,-1222.23 479.737,-1216.23 485.737,-1216.23"/>
<text text-anchor="middle" x="505.457" y="-1230.03" font-family="Times,serif" font-size="14.00">1:1 &#45; 0:0</text>
</g>
<!-- n9&#45;&gt;x1 -->
<g id="edge79" class="edge"><title>n9:e&#45;&gt;x1:s0:w</title>
<path fill="none" stroke="#d95f02" d="M437.737,-1042.23C520.826,-1042.23 398.33,-1218.08 463.753,-1233.19"/>
<polygon fill="#d95f02" stroke="#d95f02" points="463.429,-1236.68 473.737,-1234.23 464.15,-1229.71 463.429,-1236.68"/>
</g>
<!-- x2 -->
<g id="node12" class="node"><title>x2</title>
<path fill="none" stroke="black" d="M485.737,-1161.23C485.737,-1161.23 525.178,-1161.23 525.178,-1161.23 531.178,-1161.23 537.178,-1167.23 537.178,-1173.23 537.178,-1173.23 537.178,-1185.23 537.178,-1185.23 537.178,-1191.23 531.178,-1197.23 525.178,-1197.23 525.178,-1197.23 485.737,-1197.23 485.737,-1197.23 479.737,-1197.23 473.737,-1191.23 473.737,-1185.23 473.737,-1185.23 473.737,-1173.23 473.737,-1173.23 473.737,-1167.23 479.737,-1161.23 485.737,-1161.23"/>
<text text-anchor="middle" x="505.457" y="-1175.03" font-family="Times,serif" font-size="14.00">2:2 &#45; 0:0</text>
</g>
<!-- n9&#45;&gt;x2 -->
<g id="edge82" class="edge"><title>n9:e&#45;&gt;x2:s0:w</title>
<path fill="none" stroke="#d95f02" d="M437.737,-1042.23C496.758,-1042.23 421.422,-1162.64 463.649,-1177.69"/>
<polygon fill="#d95f02" stroke="#d95f02" points="463.323,-1181.18 473.737,-1179.23 464.379,-1174.26 463.323,-1181.18"/>
</g>
<!-- x5 -->
<g id="node16" class="node"><title>x5</title>
<path fill="none" stroke="black" d="M485.737,-1051.23C485.737,-1051.23 525.178,-1051.23 525.178,-1051.23 531.178,-1051.23 537.178,-1057.23 537.178,-1063.23 537.178,-1063.23 537.178,-1075.23 537.178,-1075.23 537.178,-1081.23 531.178,-1087.23 525.178,-1087.23 525.178,-1087.23 485.737,-1087.23 485.737,-1087.23 479.737,-1087.23 473.737,-1081.23 473.737,-1075.23 473.737,-1075.23 473.737,-1063.23 473.737,-1063.23 473.737,-1057.23 479.737,-1051.23 485.737,-1051.23"/>
<text text-anchor="middle" x="505.457" y="-1065.03" font-family="Times,serif" font-size="14.00">2:2 &#45; 0:0</text>
</g>
<!-- n9&#45;&gt;x5 -->
<g id="edge87" class="edge"><title>n9:e&#45;&gt;x5:s0:w</title>
<path fill="none" stroke="#d95f02" d="M437.737,-1042.23C453.674,-1042.23 454.371,-1059.37 464.118,-1066.34"/>
<polygon fill="#d95f02" stroke="#d95f02" points="463.152,-1069.7 473.737,-1069.23 465.166,-1063 463.152,-1069.7"/>
</g>
<!-- x6 -->
<g id="node17" class="node"><title>x6</title>
<path fill="none" stroke="black" d="M485.737,-996.225C485.737,-996.225 525.178,-996.225 525.178,-996.225 531.178,-996.225 537.178,-1002.23 537.178,-1008.23 537.178,-1008.23 537.178,-1020.23 537.178,-1020.23 537.178,-1026.23 531.178,-1032.23 525.178,-1032.23 525.178,-1032.23 485.737,-1032.23 485.737,-1032.23 479.737,-1032.23 473.737,-1026.23 473.737,-1020.23 473.737,-1020.23 473.737,-1008.23 473.737,-1008.23 473.737,-1002.23 479.737,-996.225 485.737,-996.225"/>
<text text-anchor="middle" x="505.457" y="-1010.03" font-family="Times,serif" font-size="14.00">0:0 &#45; 0:0</text>
</g>
<!-- n9&#45;&gt;x6 -->
<g id="edge88" class="edge"><title>n9:e&#45;&gt;x6:s0:w</title>
<path fill="none" stroke="#d95f02" d="M437.737,-1042.23C453.889,-1042.23 454.287,-1024.44 464.04,-1017.22"/>
<polygon fill="#d95f02" stroke="#d95f02" points="465.216,-1020.52 473.737,-1014.23 463.149,-1013.83 465.216,-1020.52"/>
</g>
<!-- x7 -->
<g id="node18" class="node"><title>x7</title>
<path fill="none" stroke="black" d="M485.737,-941.225C485.737,-941.225 525.178,-941.225 525.178,-941.225 531.178,-941.225 537.178,-947.225 537.178,-953.225 537.178,-953.225 537.178,-965.225 537.178,-965.225 537.178,-971.225 531.178,-977.225 525.178,-977.225 525.178,-977.225 485.737,-977.225 485.737,-977.225 479.737,-977.225 473.737,-971.225 473.737,-965.225 473.737,-965.225 473.737,-953.225 473.737,-953.225 473.737,-947.225 479.737,-941.225 485.737,-941.225"/>
<text text-anchor="middle" x="505.457" y="-955.025" font-family="Times,serif" font-size="14.00">1:1 &#45; 0:0</text>
</g>
<!-- n9&#45;&gt;x7 -->
<g id="edge89" class="edge"><title>n9:e&#45;&gt;x7:s0:w</title>
<path fill="none" stroke="#d95f02" d="M437.737,-1042.23C473.862,-1042.23 441.677,-975.228 463.927,-961.62"/>
<polygon fill="#d95f02" stroke="#d95f02" points="464.852,-964.997 473.737,-959.225 463.192,-958.196 464.852,-964.997"/>
</g>
<!-- x10 -->
<g id="node22" class="node"><title>x10</title>
<path fill="none" stroke="black" d="M485.737,-1711.23C485.737,-1711.23 525.178,-1711.23 525.178,-1711.23 531.178,-1711.23 537.178,-1717.23 537.178,-1723.23 537.178,-1723.23 537.178,-1735.23 537.178,-1735.23 537.178,-1741.23 531.178,-1747.23 525.178,-1747.23 525.178,-1747.23 485.737,-1747.23 485.737,-1747.23 479.737,-1747.23 473.737,-1741.23 473.737,-1735.23 473.737,-1735.23 473.737,-1723.23 473.737,-1723.23 473.737,-1717.23 479.737,-1711.23 485.737,-1711.23"/>
<text text-anchor="middle" x="505.457" y="-1725.03" font-family="Times,serif" font-size="14.00">0:0 &#45; 0:0</text>
</g>
<!-- n9&#45;&gt;x10 -->
<g id="edge73" class="edge"><title>n9:e&#45;&gt;x10:s0:w</title>
<path fill="none" stroke="#d95f02" d="M437.737,-1042.23C510.741,-1042.23 407.409,-1668.89 464.571,-1725.19"/>
<polygon fill="#d95f02" stroke="#d95f02" points="463.174,-1728.4 473.737,-1729.23 465.994,-1721.99 463.174,-1728.4"/>
</g>
<!-- x11 -->
<g id="node23" class="node"><title>x11</title>
<path fill="none" stroke="black" d="M485.737,-1656.23C485.737,-1656.23 525.178,-1656.23 525.178,-1656.23 531.178,-1656.23 537.178,-1662.23 537.178,-1668.23 537.178,-1668.23 537.178,-1680.23 537.178,-1680.23 537.178,-1686.23 531.178,-1692.23 525.178,-1692.23 525.178,-1692.23 485.737,-1692.23 485.737,-1692.23 479.737,-1692.23 473.737,-1686.23 473.737,-1680.23 473.737,-1680.23 473.737,-1668.23 473.737,-1668.23 473.737,-1662.23 479.737,-1656.23 485.737,-1656.23"/>
<text text-anchor="middle" x="505.457" y="-1670.03" font-family="Times,serif" font-size="14.00">2:2 &#45; 0:0</text>
</g>
<!-- n9&#45;&gt;x11 -->
<g id="edge74" class="edge"><title>n9:e&#45;&gt;x11:s0:w</title>
<path fill="none" stroke="#d95f02" d="M437.737,-1042.23C504.638,-1042.23 413.205,-1614.01 464.644,-1669.85"/>
<polygon fill="#d95f02" stroke="#d95f02" points="463.208,-1673.04 473.737,-1674.23 466.242,-1666.74 463.208,-1673.04"/>
</g>
<!-- x12 -->
<g id="node24" class="node"><title>x12</title>
<path fill="none" stroke="black" d="M485.737,-1601.23C485.737,-1601.23 525.178,-1601.23 525.178,-1601.23 531.178,-1601.23 537.178,-1607.23 537.178,-1613.23 537.178,-1613.23 537.178,-1625.23 537.178,-1625.23 537.178,-1631.23 531.178,-1637.23 525.178,-1637.23 525.178,-1637.23 485.737,-1637.23 485.737,-1637.23 479.737,-1637.23 473.737,-1631.23 473.737,-1625.23 473.737,-1625.23 473.737,-1613.23 473.737,-1613.23 473.737,-1607.23 479.737,-1601.23 485.737,-1601.23"/>
<text text-anchor="middle" x="505.457" y="-1615.03" font-family="Times,serif" font-size="14.00">1:1 &#45; 0:0</text>
</g>
<!-- n9&#45;&gt;x12 -->
<g id="edge75" class="edge"><title>n9:e&#45;&gt;x12:s0:w</title>
<path fill="none" stroke="#d95f02" d="M437.737,-1042.23C498.585,-1042.23 418.818,-1559.97 464.836,-1614.58"/>
<polygon fill="#d95f02" stroke="#d95f02" points="463.252,-1617.7 473.737,-1619.23 466.49,-1611.5 463.252,-1617.7"/>
</g>
<!-- x15 -->
<g id="node28" class="node"><title>x15</title>
<path fill="none" stroke="black" d="M485.737,-1491.23C485.737,-1491.23 525.178,-1491.23 525.178,-1491.23 531.178,-1491.23 537.178,-1497.23 537.178,-1503.23 537.178,-1503.23 537.178,-1515.23 537.178,-1515.23 537.178,-1521.23 531.178,-1527.23 525.178,-1527.23 525.178,-1527.23 485.737,-1527.23 485.737,-1527.23 479.737,-1527.23 473.737,-1521.23 473.737,-1515.23 473.737,-1515.23 473.737,-1503.23 473.737,-1503.23 473.737,-1497.23 479.737,-1491.23 485.737,-1491.23"/>
<text text-anchor="middle" x="505.457" y="-1505.03" font-family="Times,serif" font-size="14.00">0:0 &#45; 0:0</text>
</g>
<!-- n9&#45;&gt;x15 -->
<g id="edge76" class="edge"><title>n9:e&#45;&gt;x15:s0:w</title>
<path fill="none" stroke="#d95f02" d="M437.737,-1042.23C538.163,-1042.23 381.415,-1476.97 463.759,-1507.53"/>
<polygon fill="#d95f02" stroke="#d95f02" points="463.292,-1511 473.737,-1509.23 464.462,-1504.1 463.292,-1511"/>
</g>
<!-- x16 -->
<g id="node29" class="node"><title>x16</title>
<path fill="none" stroke="black" d="M485.737,-1436.23C485.737,-1436.23 525.178,-1436.23 525.178,-1436.23 531.178,-1436.23 537.178,-1442.23 537.178,-1448.23 537.178,-1448.23 537.178,-1460.23 537.178,-1460.23 537.178,-1466.23 531.178,-1472.23 525.178,-1472.23 525.178,-1472.23 485.737,-1472.23 485.737,-1472.23 479.737,-1472.23 473.737,-1466.23 473.737,-1460.23 473.737,-1460.23 473.737,-1448.23 473.737,-1448.23 473.737,-1442.23 479.737,-1436.23 485.737,-1436.23"/>
<text text-anchor="middle" x="505.457" y="-1450.03" font-family="Times,serif" font-size="14.00">2:2 &#45; 0:0</text>
</g>
<!-- n9&#45;&gt;x16 -->
<g id="edge77" class="edge"><title>n9:e&#45;&gt;x16:s0:w</title>
<path fill="none" stroke="#d95f02" d="M437.737,-1042.23C525.871,-1042.23 393.554,-1421.12 463.605,-1452.2"/>
<polygon fill="#d95f02" stroke="#d95f02" points="463.245,-1455.7 473.737,-1454.23 464.615,-1448.84 463.245,-1455.7"/>
</g>
<!-- x17 -->
<g id="node30" class="node"><title>x17</title>
<path fill="none" stroke="black" d="M485.737,-1381.23C485.737,-1381.23 525.178,-1381.23 525.178,-1381.23 531.178,-1381.23 537.178,-1387.23 537.178,-1393.23 537.178,-1393.23 537.178,-1405.23 537.178,-1405.23 537.178,-1411.23 531.178,-1417.23 525.178,-1417.23 525.178,-1417.23 485.737,-1417.23 485.737,-1417.23 479.737,-1417.23 473.737,-1411.23 473.737,-1405.23 473.737,-1405.23 473.737,-1393.23 473.737,-1393.23 473.737,-1387.23 479.737,-1381.23 485.737,-1381.23"/>
<text text-anchor="middle" x="505.457" y="-1395.03" font-family="Times,serif" font-size="14.00">1:1 &#45; 0:0</text>
</g>
<!-- n9&#45;&gt;x17 -->
<g id="edge78" class="edge"><title>n9:e&#45;&gt;x17:s0:w</title>
<path fill="none" stroke="#d95f02" d="M437.737,-1042.23C513.735,-1042.23 405.13,-1366.54 463.821,-1396.95"/>
<polygon fill="#d95f02" stroke="#d95f02" points="463.207,-1400.4 473.737,-1399.23 464.775,-1393.57 463.207,-1400.4"/>
</g>
<!-- x20 -->
<g id="node36" class="node"><title>x20</title>
<path fill="none" stroke="black" d="M485.737,-513.225C485.737,-513.225 525.178,-513.225 525.178,-513.225 531.178,-513.225 537.178,-519.225 537.178,-525.225 537.178,-525.225 537.178,-537.225 537.178,-537.225 537.178,-543.225 531.178,-549.225 525.178,-549.225 525.178,-549.225 485.737,-549.225 485.737,-549.225 479.737,-549.225 473.737,-543.225 473.737,-537.225 473.737,-537.225 473.737,-525.225 473.737,-525.225 473.737,-519.225 479.737,-513.225 485.737,-513.225"/>
<text text-anchor="middle" x="505.457" y="-527.025" font-family="Times,serif" font-size="14.00">1:1 &#45; 0:0</text>
</g>
<!-- n9&#45;&gt;x20 -->
<g id="edge80" class="edge"><title>n9:e&#45;&gt;x20:s0:w</title>
<path fill="none" stroke="#d95f02" d="M437.737,-1042.23C491.32,-1042.23 425.477,-589.353 465.065,-536.283"/>
<polygon fill="#d95f02" stroke="#d95f02" points="466.862,-539.287 473.737,-531.225 463.335,-533.24 466.862,-539.287"/>
</g>
<!-- x27 -->
<g id="node42" class="node"><title>x27</title>
<path fill="none" stroke="black" d="M485.737,-187.225C485.737,-187.225 525.178,-187.225 525.178,-187.225 531.178,-187.225 537.178,-193.225 537.178,-199.225 537.178,-199.225 537.178,-211.225 537.178,-211.225 537.178,-217.225 531.178,-223.225 525.178,-223.225 525.178,-223.225 485.737,-223.225 485.737,-223.225 479.737,-223.225 473.737,-217.225 473.737,-211.225 473.737,-211.225 473.737,-199.225 473.737,-199.225 473.737,-193.225 479.737,-187.225 485.737,-187.225"/>
<text text-anchor="middle" x="505.457" y="-201.025" font-family="Times,serif" font-size="14.00">0:0 &#45; 0:0</text>
</g>
<!-- n9&#45;&gt;x27 -->
<g id="edge81" class="edge"><title>n9:e&#45;&gt;x27:s0:w</title>
<path fill="none" stroke="#d95f02" d="M437.737,-1042.23C527.186,-1042.23 392.012,-269.339 463.913,-208.957"/>
<polygon fill="#d95f02" stroke="#d95f02" points="465.631,-212.048 473.737,-205.225 463.145,-205.504 465.631,-212.048"/>
</g>
<!-- x30 -->
<g id="node46" class="node"><title>x30</title>
<path fill="none" stroke="black" d="M485.737,-793.225C485.737,-793.225 525.178,-793.225 525.178,-793.225 531.178,-793.225 537.178,-799.225 537.178,-805.225 537.178,-805.225 537.178,-817.225 537.178,-817.225 537.178,-823.225 531.178,-829.225 525.178,-829.225 525.178,-829.225 485.737,-829.225 485.737,-829.225 479.737,-829.225 473.737,-823.225 473.737,-817.225 473.737,-817.225 473.737,-805.225 473.737,-805.225 473.737,-799.225 479.737,-793.225 485.737,-793.225"/>
<text text-anchor="middle" x="505.457" y="-807.025" font-family="Times,serif" font-size="14.00">0:0 &#45; 0:0</text>
</g>
<!-- n9&#45;&gt;x30 -->
<g id="edge83" class="edge"><title>n9:e&#45;&gt;x30:s0:w</title>
<path fill="none" stroke="#d95f02" d="M437.737,-1042.23C537.787,-1042.23 382.203,-828.051 463.28,-812.156"/>
<polygon fill="#d95f02" stroke="#d95f02" points="464.086,-815.598 473.737,-811.225 463.466,-808.625 464.086,-815.598"/>
</g>
<!-- x33 -->
<g id="node48" class="node"><title>x33</title>
<path fill="none" stroke="black" d="M485.737,-683.225C485.737,-683.225 525.178,-683.225 525.178,-683.225 531.178,-683.225 537.178,-689.225 537.178,-695.225 537.178,-695.225 537.178,-707.225 537.178,-707.225 537.178,-713.225 531.178,-719.225 525.178,-719.225 525.178,-719.225 485.737,-719.225 485.737,-719.225 479.737,-719.225 473.737,-713.225 473.737,-707.225 473.737,-707.225 473.737,-695.225 473.737,-695.225 473.737,-689.225 479.737,-683.225 485.737,-683.225"/>
<text text-anchor="middle" x="505.457" y="-697.025" font-family="Times,serif" font-size="14.00">1:1 &#45; 0:0</text>
</g>
<!-- n9&#45;&gt;x33 -->
<g id="edge84" class="edge"><title>n9:e&#45;&gt;x33:s0:w</title>
<path fill="none" stroke="#d95f02" d="M437.737,-1042.23C510.215,-1042.23 408.445,-733.713 463.907,-703.585"/>
<polygon fill="#d95f02" stroke="#d95f02" points="464.83,-706.963 473.737,-701.225 463.196,-700.156 464.83,-706.963"/>
</g>
<!-- x36 -->
<g id="node52" class="node"><title>x36</title>
<path fill="none" stroke="black" d="M801.358,-645.225C801.358,-645.225 840.799,-645.225 840.799,-645.225 846.799,-645.225 852.799,-651.225 852.799,-657.225 852.799,-657.225 852.799,-669.225 852.799,-669.225 852.799,-675.225 846.799,-681.225 840.799,-681.225 840.799,-681.225 801.358,-681.225 801.358,-681.225 795.358,-681.225 789.358,-675.225 789.358,-669.225 789.358,-669.225 789.358,-657.225 789.358,-657.225 789.358,-651.225 795.358,-645.225 801.358,-645.225"/>
<text text-anchor="middle" x="821.078" y="-659.025" font-family="Times,serif" font-size="14.00">2:2 &#45; 0:0</text>
</g>
<!-- n9&#45;&gt;x36 -->
<g id="edge85" class="edge"><title>n9:e&#45;&gt;x36:s0:w</title>
<path fill="none" stroke="#d95f02" d="M437.737,-1042.23C520.126,-1042.23 413.6,-729.542 473.737,-673.225 522.656,-627.413 702.023,-659.987 779.174,-663.006"/>
<polygon fill="#d95f02" stroke="#d95f02" points="779.285,-666.51 789.358,-663.225 779.435,-659.511 779.285,-666.51"/>
</g>
<!-- x50 -->
<g id="node72" class="node"><title>x50</title>
<path fill="none" stroke="black" d="M1484.44,-496.225C1484.44,-496.225 1523.88,-496.225 1523.88,-496.225 1529.88,-496.225 1535.88,-502.225 1535.88,-508.225 1535.88,-508.225 1535.88,-520.225 1535.88,-520.225 1535.88,-526.225 1529.88,-532.225 1523.88,-532.225 1523.88,-532.225 1484.44,-532.225 1484.44,-532.225 1478.44,-532.225 1472.44,-526.225 1472.44,-520.225 1472.44,-520.225 1472.44,-508.225 1472.44,-508.225 1472.44,-502.225 1478.44,-496.225 1484.44,-496.225"/>
<text text-anchor="middle" x="1504.16" y="-510.025" font-family="Times,serif" font-size="14.00">0:0 &#45; 0:0</text>
</g>
<!-- n9&#45;&gt;x50 -->
<g id="edge86" class="edge"><title>n9:e&#45;&gt;x50:s0:w</title>
<path fill="none" stroke="#d95f02" d="M437.737,-1042.23C512.795,-1042.23 417.715,-927.179 473.737,-877.225 536.593,-821.176 578.052,-858.225 662.268,-858.225 662.268,-858.225 662.268,-858.225 1264.43,-858.225 1350.27,-858.225 1380.72,-540.575 1462.24,-515.759"/>
<polygon fill="#d95f02" stroke="#d95f02" points="1463.07,-519.173 1472.44,-514.225 1462.03,-512.251 1463.07,-519.173"/>
</g>
<!-- n10 -->
<g id="node7" class="node"><title>n10</title>
<polygon fill="none" stroke="black" points="1640.22,-1863.23 1601.12,-1845.23 1640.22,-1827.23 1679.32,-1845.23 1640.22,-1863.23"/>
<text text-anchor="middle" x="1640.22" y="-1841.03" font-family="Times,serif" font-size="14.00">mem</text>
</g>
<!-- v3 -->
<g id="node8" class="node"><title>v3</title>
<ellipse fill="none" stroke="black" cx="505.457" cy="-1124.23" rx="27" ry="18"/>
<text text-anchor="middle" x="505.457" y="-1120.03" font-family="Times,serif" font-size="14.00">1&#39;0</text>
</g>
<!-- c16 -->
<g id="node9" class="node"><title>c16</title>
<polygon fill="none" stroke="black" points="599.213,-1179.23 599.213,-1267.23 727.323,-1267.23 727.323,-1179.23 599.213,-1179.23"/>
<text text-anchor="middle" x="613.044" y="-1252.03" font-family="Times,serif" font-size="14.00">I0</text>
<polyline fill="none" stroke="black" points="599.213,-1245.23 626.875,-1245.23 "/>
<text text-anchor="middle" x="613.044" y="-1230.03" font-family="Times,serif" font-size="14.00">I1</text>
<polyline fill="none" stroke="black" points="599.213,-1223.23 626.875,-1223.23 "/>
<text text-anchor="middle" x="613.044" y="-1208.03" font-family="Times,serif" font-size="14.00">I2</text>
<polyline fill="none" stroke="black" points="599.213,-1201.23 626.875,-1201.23 "/>
<text text-anchor="middle" x="613.044" y="-1186.03" font-family="Times,serif" font-size="14.00">I3</text>
<polyline fill="none" stroke="black" points="626.875,-1179.23 626.875,-1267.23 "/>
<text text-anchor="middle" x="664.044" y="-1226.03" font-family="Times,serif" font-size="14.00">$350</text>
<text text-anchor="middle" x="664.044" y="-1212.03" font-family="Times,serif" font-size="14.00">SB_LUT4</text>
<polyline fill="none" stroke="black" points="701.213,-1179.23 701.213,-1267.23 "/>
<text text-anchor="middle" x="714.268" y="-1219.03" font-family="Times,serif" font-size="14.00">O</text>
</g>
<!-- v3&#45;&gt;c16 -->
<g id="edge98" class="edge"><title>v3:e&#45;&gt;c16:p14:w</title>
<path fill="none" stroke="#e6ab02" d="M533.457,-1124.23C570.715,-1124.23 559.907,-1178.43 588.152,-1188.59"/>
<polygon fill="#e6ab02" stroke="#e6ab02" points="587.838,-1192.09 598.268,-1190.23 588.953,-1185.18 587.838,-1192.09"/>
</g>
<!-- x4 -->
<g id="node13" class="node"><title>x4</title>
<path fill="none" stroke="black" d="M801.358,-1319.23C801.358,-1319.23 840.799,-1319.23 840.799,-1319.23 846.799,-1319.23 852.799,-1325.23 852.799,-1331.23 852.799,-1331.23 852.799,-1343.23 852.799,-1343.23 852.799,-1349.23 846.799,-1355.23 840.799,-1355.23 840.799,-1355.23 801.358,-1355.23 801.358,-1355.23 795.358,-1355.23 789.358,-1349.23 789.358,-1343.23 789.358,-1343.23 789.358,-1331.23 789.358,-1331.23 789.358,-1325.23 795.358,-1319.23 801.358,-1319.23"/>
<text text-anchor="middle" x="821.078" y="-1333.03" font-family="Times,serif" font-size="14.00">0:0 &#45; 2:2</text>
</g>
<!-- c16&#45;&gt;x4 -->
<g id="edge4" class="edge"><title>c16:p15:e&#45;&gt;x4:w</title>
<path fill="none" stroke="#e7298a" d="M740.289,-1225.4C774.303,-1239.75 743.337,-1320.61 777.283,-1335.03"/>
<polygon fill="none" stroke="#e7298a" points="740.076,-1225.36 733.46,-1228.23 728.268,-1223.23 734.884,-1220.36 740.076,-1225.36"/>
<polygon fill="none" stroke="#e7298a" points="777.552,-1335.08 784.171,-1332.22 789.358,-1337.23 782.738,-1340.09 777.552,-1335.08"/>
</g>
<!-- x0&#45;&gt;c16 -->
<g id="edge1" class="edge"><title>x0:e&#45;&gt;c16:p11:w</title>
<path fill="none" stroke="#7570b3" d="M549.045,-1287.26C565.041,-1281.43 570.233,-1264.28 586.088,-1258.31"/>
<polygon fill="none" stroke="#7570b3" points="549.017,-1287.26 543.751,-1292.19 537.178,-1289.23 542.444,-1284.3 549.017,-1287.26"/>
<polygon fill="none" stroke="#7570b3" points="586.439,-1258.25 591.68,-1253.29 598.268,-1256.23 593.027,-1261.18 586.439,-1258.25"/>
</g>
<!-- x1&#45;&gt;c16 -->
<g id="edge2" class="edge"><title>x1:e&#45;&gt;c16:p12:w</title>
<path fill="none" stroke="#d95f02" d="M549.329,-1234.23C563.557,-1234.23 571.841,-1234.23 586.05,-1234.23"/>
<polygon fill="none" stroke="#d95f02" points="549.178,-1234.23 543.178,-1238.23 537.178,-1234.23 543.178,-1230.23 549.178,-1234.23"/>
<polygon fill="none" stroke="#d95f02" points="586.268,-1234.23 592.268,-1230.23 598.268,-1234.23 592.268,-1238.23 586.268,-1234.23"/>
</g>
<!-- x2&#45;&gt;c16 -->
<g id="edge3" class="edge"><title>x2:e&#45;&gt;c16:p13:w</title>
<path fill="none" stroke="#e6ab02" d="M549.045,-1181.19C565.041,-1187.02 570.233,-1204.17 586.088,-1210.14"/>
<polygon fill="none" stroke="#e6ab02" points="549.017,-1181.19 542.444,-1184.15 537.178,-1179.23 543.751,-1176.26 549.017,-1181.19"/>
<polygon fill="none" stroke="#e6ab02" points="586.439,-1210.2 593.027,-1207.27 598.268,-1212.23 591.68,-1215.16 586.439,-1210.2"/>
</g>
<!-- n2 -->
<g id="node79" class="node"><title>n2</title>
<ellipse fill="black" stroke="black" cx="920.52" cy="-1622.23" rx="1.8" ry="1.8"/>
</g>
<!-- x4&#45;&gt;n2 -->
<g id="edge47" class="edge"><title>x4:s0:e&#45;&gt;n2:w</title>
<path fill="none" stroke="#66a61e" d="M852.799,-1337.23C979.012,-1337.23 798.416,-1606.31 907.251,-1621.55"/>
<polygon fill="#66a61e" stroke="#66a61e" points="907.312,-1625.06 917.52,-1622.23 907.77,-1618.08 907.312,-1625.06"/>
</g>
<!-- v8 -->
<g id="node14" class="node"><title>v8</title>
<ellipse fill="none" stroke="black" cx="505.457" cy="-904.225" rx="27" ry="18"/>
<text text-anchor="middle" x="505.457" y="-900.025" font-family="Times,serif" font-size="14.00">1&#39;0</text>
</g>
<!-- c17 -->
<g id="node15" class="node"><title>c17</title>
<polygon fill="none" stroke="black" points="599.213,-959.225 599.213,-1047.23 727.323,-1047.23 727.323,-959.225 599.213,-959.225"/>
<text text-anchor="middle" x="613.044" y="-1032.03" font-family="Times,serif" font-size="14.00">I0</text>
<polyline fill="none" stroke="black" points="599.213,-1025.23 626.875,-1025.23 "/>
<text text-anchor="middle" x="613.044" y="-1010.03" font-family="Times,serif" font-size="14.00">I1</text>
<polyline fill="none" stroke="black" points="599.213,-1003.23 626.875,-1003.23 "/>
<text text-anchor="middle" x="613.044" y="-988.025" font-family="Times,serif" font-size="14.00">I2</text>
<polyline fill="none" stroke="black" points="599.213,-981.225 626.875,-981.225 "/>
<text text-anchor="middle" x="613.044" y="-966.025" font-family="Times,serif" font-size="14.00">I3</text>
<polyline fill="none" stroke="black" points="626.875,-959.225 626.875,-1047.23 "/>
<text text-anchor="middle" x="664.044" y="-1006.03" font-family="Times,serif" font-size="14.00">$351</text>
<text text-anchor="middle" x="664.044" y="-992.025" font-family="Times,serif" font-size="14.00">SB_LUT4</text>
<polyline fill="none" stroke="black" points="701.213,-959.225 701.213,-1047.23 "/>
<text text-anchor="middle" x="714.268" y="-999.025" font-family="Times,serif" font-size="14.00">O</text>
</g>
<!-- v8&#45;&gt;c17 -->
<g id="edge106" class="edge"><title>v8:e&#45;&gt;c17:p14:w</title>
<path fill="none" stroke="#e6ab02" d="M533.457,-904.225C570.715,-904.225 559.907,-958.43 588.152,-968.594"/>
<polygon fill="#e6ab02" stroke="#e6ab02" points="587.838,-972.088 598.268,-970.225 588.953,-965.177 587.838,-972.088"/>
</g>
<!-- x9 -->
<g id="node19" class="node"><title>x9</title>
<path fill="none" stroke="black" d="M801.358,-1124.23C801.358,-1124.23 840.799,-1124.23 840.799,-1124.23 846.799,-1124.23 852.799,-1130.23 852.799,-1136.23 852.799,-1136.23 852.799,-1148.23 852.799,-1148.23 852.799,-1154.23 846.799,-1160.23 840.799,-1160.23 840.799,-1160.23 801.358,-1160.23 801.358,-1160.23 795.358,-1160.23 789.358,-1154.23 789.358,-1148.23 789.358,-1148.23 789.358,-1136.23 789.358,-1136.23 789.358,-1130.23 795.358,-1124.23 801.358,-1124.23"/>
<text text-anchor="middle" x="821.078" y="-1138.03" font-family="Times,serif" font-size="14.00">0:0 &#45; 3:3</text>
</g>
<!-- c17&#45;&gt;x9 -->
<g id="edge8" class="edge"><title>c17:p15:e&#45;&gt;x9:w</title>
<path fill="none" stroke="#66a61e" d="M740.215,-1005.08C782.889,-1020.36 734.786,-1124.89 777.294,-1140.32"/>
<polygon fill="none" stroke="#66a61e" points="740.125,-1005.07 733.581,-1008.1 728.268,-1003.23 734.812,-1000.2 740.125,-1005.07"/>
<polygon fill="none" stroke="#66a61e" points="777.504,-1140.36 784.054,-1137.34 789.358,-1142.23 782.808,-1145.24 777.504,-1140.36"/>
</g>
<!-- x5&#45;&gt;c17 -->
<g id="edge5" class="edge"><title>x5:e&#45;&gt;c17:p11:w</title>
<path fill="none" stroke="#66a61e" d="M549.045,-1067.26C565.041,-1061.43 570.233,-1044.28 586.088,-1038.31"/>
<polygon fill="none" stroke="#66a61e" points="549.017,-1067.26 543.751,-1072.19 537.178,-1069.23 542.444,-1064.3 549.017,-1067.26"/>
<polygon fill="none" stroke="#66a61e" points="586.439,-1038.25 591.68,-1033.29 598.268,-1036.23 593.027,-1041.18 586.439,-1038.25"/>
</g>
<!-- x6&#45;&gt;c17 -->
<g id="edge6" class="edge"><title>x6:e&#45;&gt;c17:p12:w</title>
<path fill="none" stroke="#666666" d="M549.329,-1014.23C563.557,-1014.23 571.841,-1014.23 586.05,-1014.23"/>
<polygon fill="none" stroke="#666666" points="549.178,-1014.23 543.178,-1018.23 537.178,-1014.23 543.178,-1010.23 549.178,-1014.23"/>
<polygon fill="none" stroke="#666666" points="586.268,-1014.23 592.268,-1010.23 598.268,-1014.23 592.268,-1018.23 586.268,-1014.23"/>
</g>
<!-- x7&#45;&gt;c17 -->
<g id="edge7" class="edge"><title>x7:e&#45;&gt;c17:p13:w</title>
<path fill="none" stroke="#a6761d" d="M549.045,-961.191C565.041,-967.018 570.233,-984.168 586.088,-990.144"/>
<polygon fill="none" stroke="#a6761d" points="549.017,-961.186 542.444,-964.152 537.178,-959.225 543.751,-956.259 549.017,-961.186"/>
<polygon fill="none" stroke="#a6761d" points="586.439,-990.203 593.027,-987.271 598.268,-992.225 591.68,-995.157 586.439,-990.203"/>
</g>
<!-- x9&#45;&gt;n2 -->
<g id="edge48" class="edge"><title>x9:s0:e&#45;&gt;n2:w</title>
<path fill="none" stroke="#66a61e" d="M852.799,-1142.23C956.857,-1142.23 819.6,-1590.88 907.634,-1620.67"/>
<polygon fill="#66a61e" stroke="#66a61e" points="907.098,-1624.13 917.52,-1622.23 908.184,-1617.22 907.098,-1624.13"/>
</g>
<!-- v13 -->
<g id="node20" class="node"><title>v13</title>
<ellipse fill="none" stroke="black" cx="505.457" cy="-1564.23" rx="27" ry="18"/>
<text text-anchor="middle" x="505.457" y="-1560.03" font-family="Times,serif" font-size="14.00">1&#39;0</text>
</g>
<!-- c18 -->
<g id="node21" class="node"><title>c18</title>
<polygon fill="none" stroke="black" points="599.213,-1586.23 599.213,-1674.23 727.323,-1674.23 727.323,-1586.23 599.213,-1586.23"/>
<text text-anchor="middle" x="613.044" y="-1659.03" font-family="Times,serif" font-size="14.00">I0</text>
<polyline fill="none" stroke="black" points="599.213,-1652.23 626.875,-1652.23 "/>
<text text-anchor="middle" x="613.044" y="-1637.03" font-family="Times,serif" font-size="14.00">I1</text>
<polyline fill="none" stroke="black" points="599.213,-1630.23 626.875,-1630.23 "/>
<text text-anchor="middle" x="613.044" y="-1615.03" font-family="Times,serif" font-size="14.00">I2</text>
<polyline fill="none" stroke="black" points="599.213,-1608.23 626.875,-1608.23 "/>
<text text-anchor="middle" x="613.044" y="-1593.03" font-family="Times,serif" font-size="14.00">I3</text>
<polyline fill="none" stroke="black" points="626.875,-1586.23 626.875,-1674.23 "/>
<text text-anchor="middle" x="664.044" y="-1633.03" font-family="Times,serif" font-size="14.00">$352</text>
<text text-anchor="middle" x="664.044" y="-1619.03" font-family="Times,serif" font-size="14.00">SB_LUT4</text>
<polyline fill="none" stroke="black" points="701.213,-1586.23 701.213,-1674.23 "/>
<text text-anchor="middle" x="714.268" y="-1626.03" font-family="Times,serif" font-size="14.00">O</text>
</g>
<!-- v13&#45;&gt;c18 -->
<g id="edge90" class="edge"><title>v13:e&#45;&gt;c18:p14:w</title>
<path fill="none" stroke="#7570b3" d="M533.457,-1564.23C561.993,-1564.23 565.464,-1589.94 588.126,-1595.97"/>
<polygon fill="#7570b3" stroke="#7570b3" points="587.914,-1599.47 598.268,-1597.23 588.773,-1592.52 587.914,-1599.47"/>
</g>
<!-- x14 -->
<g id="node25" class="node"><title>x14</title>
<path fill="none" stroke="black" d="M801.358,-1607.23C801.358,-1607.23 840.799,-1607.23 840.799,-1607.23 846.799,-1607.23 852.799,-1613.23 852.799,-1619.23 852.799,-1619.23 852.799,-1631.23 852.799,-1631.23 852.799,-1637.23 846.799,-1643.23 840.799,-1643.23 840.799,-1643.23 801.358,-1643.23 801.358,-1643.23 795.358,-1643.23 789.358,-1637.23 789.358,-1631.23 789.358,-1631.23 789.358,-1619.23 789.358,-1619.23 789.358,-1613.23 795.358,-1607.23 801.358,-1607.23"/>
<text text-anchor="middle" x="821.078" y="-1621.03" font-family="Times,serif" font-size="14.00">0:0 &#45; 1:1</text>
</g>
<!-- c18&#45;&gt;x14 -->
<g id="edge12" class="edge"><title>c18:p15:e&#45;&gt;x14:w</title>
<path fill="none" stroke="#7570b3" d="M740.444,-1629.85C754.682,-1628.92 762.896,-1626.54 777.115,-1625.61"/>
<polygon fill="none" stroke="#7570b3" points="740.262,-1629.85 734.388,-1634.04 728.268,-1630.23 734.142,-1626.04 740.262,-1629.85"/>
<polygon fill="none" stroke="#7570b3" points="777.363,-1625.6 783.236,-1621.41 789.358,-1625.23 783.485,-1629.41 777.363,-1625.6"/>
</g>
<!-- x10&#45;&gt;c18 -->
<g id="edge9" class="edge"><title>x10:e&#45;&gt;c18:p11:w</title>
<path fill="none" stroke="#a6761d" d="M548.996,-1726.72C570.278,-1716.26 565.167,-1676.19 586.445,-1665.73"/>
<polygon fill="none" stroke="#a6761d" points="548.917,-1726.74 543.877,-1731.89 537.178,-1729.23 542.217,-1724.07 548.917,-1726.74"/>
<polygon fill="none" stroke="#a6761d" points="586.529,-1665.72 591.568,-1660.56 598.268,-1663.23 593.229,-1668.38 586.529,-1665.72"/>
</g>
<!-- x11&#45;&gt;c18 -->
<g id="edge10" class="edge"><title>x11:e&#45;&gt;c18:p12:w</title>
<path fill="none" stroke="#1b9e77" d="M549.045,-1672.26C565.041,-1666.43 570.233,-1649.28 586.088,-1643.31"/>
<polygon fill="none" stroke="#1b9e77" points="549.017,-1672.26 543.751,-1677.19 537.178,-1674.23 542.444,-1669.3 549.017,-1672.26"/>
<polygon fill="none" stroke="#1b9e77" points="586.439,-1643.25 591.68,-1638.29 598.268,-1641.23 593.027,-1646.18 586.439,-1643.25"/>
</g>
<!-- x12&#45;&gt;c18 -->
<g id="edge11" class="edge"><title>x12:e&#45;&gt;c18:p13:w</title>
<path fill="none" stroke="#e6ab02" d="M549.329,-1619.23C563.557,-1619.23 571.841,-1619.23 586.05,-1619.23"/>
<polygon fill="none" stroke="#e6ab02" points="549.178,-1619.23 543.178,-1623.23 537.178,-1619.23 543.178,-1615.23 549.178,-1619.23"/>
<polygon fill="none" stroke="#e6ab02" points="586.268,-1619.23 592.268,-1615.23 598.268,-1619.23 592.268,-1623.23 586.268,-1619.23"/>
</g>
<!-- x14&#45;&gt;n2 -->
<g id="edge45" class="edge"><title>x14:s0:e&#45;&gt;n2:w</title>
<path fill="none" stroke="#66a61e" d="M852.799,-1625.23C877.883,-1625.23 886.526,-1622.95 907.371,-1622.36"/>
<polygon fill="#66a61e" stroke="#66a61e" points="907.568,-1625.86 917.52,-1622.23 907.474,-1618.86 907.568,-1625.86"/>
</g>
<!-- v18 -->
<g id="node26" class="node"><title>v18</title>
<ellipse fill="none" stroke="black" cx="505.457" cy="-1344.23" rx="27" ry="18"/>
<text text-anchor="middle" x="505.457" y="-1340.03" font-family="Times,serif" font-size="14.00">1&#39;0</text>
</g>
<!-- c19 -->
<g id="node27" class="node"><title>c19</title>
<polygon fill="none" stroke="black" points="599.213,-1399.23 599.213,-1487.23 727.323,-1487.23 727.323,-1399.23 599.213,-1399.23"/>
<text text-anchor="middle" x="613.044" y="-1472.03" font-family="Times,serif" font-size="14.00">I0</text>
<polyline fill="none" stroke="black" points="599.213,-1465.23 626.875,-1465.23 "/>
<text text-anchor="middle" x="613.044" y="-1450.03" font-family="Times,serif" font-size="14.00">I1</text>
<polyline fill="none" stroke="black" points="599.213,-1443.23 626.875,-1443.23 "/>
<text text-anchor="middle" x="613.044" y="-1428.03" font-family="Times,serif" font-size="14.00">I2</text>
<polyline fill="none" stroke="black" points="599.213,-1421.23 626.875,-1421.23 "/>
<text text-anchor="middle" x="613.044" y="-1406.03" font-family="Times,serif" font-size="14.00">I3</text>
<polyline fill="none" stroke="black" points="626.875,-1399.23 626.875,-1487.23 "/>
<text text-anchor="middle" x="664.044" y="-1446.03" font-family="Times,serif" font-size="14.00">$353</text>
<text text-anchor="middle" x="664.044" y="-1432.03" font-family="Times,serif" font-size="14.00">SB_LUT4</text>
<polyline fill="none" stroke="black" points="701.213,-1399.23 701.213,-1487.23 "/>
<text text-anchor="middle" x="714.268" y="-1439.03" font-family="Times,serif" font-size="14.00">O</text>
</g>
<!-- v18&#45;&gt;c19 -->
<g id="edge91" class="edge"><title>v18:e&#45;&gt;c19:p14:w</title>
<path fill="none" stroke="#e6ab02" d="M533.457,-1344.23C570.715,-1344.23 559.907,-1398.43 588.152,-1408.59"/>
<polygon fill="#e6ab02" stroke="#e6ab02" points="587.838,-1412.09 598.268,-1410.23 588.953,-1405.18 587.838,-1412.09"/>
</g>
<!-- x19 -->
<g id="node31" class="node"><title>x19</title>
<path fill="none" stroke="black" d="M801.358,-1488.23C801.358,-1488.23 840.799,-1488.23 840.799,-1488.23 846.799,-1488.23 852.799,-1494.23 852.799,-1500.23 852.799,-1500.23 852.799,-1512.23 852.799,-1512.23 852.799,-1518.23 846.799,-1524.23 840.799,-1524.23 840.799,-1524.23 801.358,-1524.23 801.358,-1524.23 795.358,-1524.23 789.358,-1518.23 789.358,-1512.23 789.358,-1512.23 789.358,-1500.23 789.358,-1500.23 789.358,-1494.23 795.358,-1488.23 801.358,-1488.23"/>
<text text-anchor="middle" x="821.078" y="-1502.03" font-family="Times,serif" font-size="14.00">0:0 &#45; 0:0</text>
</g>
<!-- c19&#45;&gt;x19 -->
<g id="edge16" class="edge"><title>c19:p15:e&#45;&gt;x19:w</title>
<path fill="none" stroke="#e7298a" d="M740.175,-1445.77C760.737,-1455.95 756.904,-1493.61 777.526,-1503.71"/>
<polygon fill="none" stroke="#e7298a" points="740.002,-1445.74 733.298,-1448.39 728.268,-1443.23 734.972,-1440.57 740.002,-1445.74"/>
<polygon fill="none" stroke="#e7298a" points="777.619,-1503.73 784.319,-1501.07 789.358,-1506.23 782.658,-1508.89 777.619,-1503.73"/>
</g>
<!-- x15&#45;&gt;c19 -->
<g id="edge13" class="edge"><title>x15:e&#45;&gt;c19:p11:w</title>
<path fill="none" stroke="#e7298a" d="M549.045,-1507.26C565.041,-1501.43 570.233,-1484.28 586.088,-1478.31"/>
<polygon fill="none" stroke="#e7298a" points="549.017,-1507.26 543.751,-1512.19 537.178,-1509.23 542.444,-1504.3 549.017,-1507.26"/>
<polygon fill="none" stroke="#e7298a" points="586.439,-1478.25 591.68,-1473.29 598.268,-1476.23 593.027,-1481.18 586.439,-1478.25"/>
</g>
<!-- x16&#45;&gt;c19 -->
<g id="edge14" class="edge"><title>x16:e&#45;&gt;c19:p12:w</title>
<path fill="none" stroke="#a6761d" d="M549.329,-1454.23C563.557,-1454.23 571.841,-1454.23 586.05,-1454.23"/>
<polygon fill="none" stroke="#a6761d" points="549.178,-1454.23 543.178,-1458.23 537.178,-1454.23 543.178,-1450.23 549.178,-1454.23"/>
<polygon fill="none" stroke="#a6761d" points="586.268,-1454.23 592.268,-1450.23 598.268,-1454.23 592.268,-1458.23 586.268,-1454.23"/>
</g>
<!-- x17&#45;&gt;c19 -->
<g id="edge15" class="edge"><title>x17:e&#45;&gt;c19:p13:w</title>
<path fill="none" stroke="#a6761d" d="M549.045,-1401.19C565.041,-1407.02 570.233,-1424.17 586.088,-1430.14"/>
<polygon fill="none" stroke="#a6761d" points="549.017,-1401.19 542.444,-1404.15 537.178,-1399.23 543.751,-1396.26 549.017,-1401.19"/>
<polygon fill="none" stroke="#a6761d" points="586.439,-1430.2 593.027,-1427.27 598.268,-1432.23 591.68,-1435.16 586.439,-1430.2"/>
</g>
<!-- x19&#45;&gt;n2 -->
<g id="edge46" class="edge"><title>x19:s0:e&#45;&gt;n2:w</title>
<path fill="none" stroke="#66a61e" d="M852.799,-1506.23C908.031,-1506.23 864.893,-1607.75 907.445,-1620.84"/>
<polygon fill="#66a61e" stroke="#66a61e" points="907.137,-1624.33 917.52,-1622.23 908.089,-1617.4 907.137,-1624.33"/>
</g>
<!-- v21 -->
<g id="node32" class="node"><title>v21</title>
<ellipse fill="none" stroke="black" cx="505.457" cy="-476.225" rx="27" ry="18"/>
<text text-anchor="middle" x="505.457" y="-472.025" font-family="Times,serif" font-size="14.00">1&#39;0</text>
</g>
<!-- c20 -->
<g id="node35" class="node"><title>c20</title>
<polygon fill="none" stroke="black" points="599.213,-389.225 599.213,-477.225 727.323,-477.225 727.323,-389.225 599.213,-389.225"/>
<text text-anchor="middle" x="613.044" y="-462.025" font-family="Times,serif" font-size="14.00">I0</text>
<polyline fill="none" stroke="black" points="599.213,-455.225 626.875,-455.225 "/>
<text text-anchor="middle" x="613.044" y="-440.025" font-family="Times,serif" font-size="14.00">I1</text>
<polyline fill="none" stroke="black" points="599.213,-433.225 626.875,-433.225 "/>
<text text-anchor="middle" x="613.044" y="-418.025" font-family="Times,serif" font-size="14.00">I2</text>
<polyline fill="none" stroke="black" points="599.213,-411.225 626.875,-411.225 "/>
<text text-anchor="middle" x="613.044" y="-396.025" font-family="Times,serif" font-size="14.00">I3</text>
<polyline fill="none" stroke="black" points="626.875,-389.225 626.875,-477.225 "/>
<text text-anchor="middle" x="664.044" y="-436.025" font-family="Times,serif" font-size="14.00">$354</text>
<text text-anchor="middle" x="664.044" y="-422.025" font-family="Times,serif" font-size="14.00">SB_LUT4</text>
<polyline fill="none" stroke="black" points="701.213,-389.225 701.213,-477.225 "/>
<text text-anchor="middle" x="714.268" y="-429.025" font-family="Times,serif" font-size="14.00">O</text>
</g>
<!-- v21&#45;&gt;c20 -->
<g id="edge92" class="edge"><title>v21:e&#45;&gt;c20:p12:w</title>
<path fill="none" stroke="#a6761d" d="M533.457,-476.225C561.817,-476.225 565.578,-451.286 588.173,-445.44"/>
<polygon fill="#a6761d" stroke="#a6761d" points="588.758,-448.895 598.268,-444.225 587.921,-441.946 588.758,-448.895"/>
</g>
<!-- v22 -->
<g id="node33" class="node"><title>v22</title>
<ellipse fill="none" stroke="black" cx="505.457" cy="-422.225" rx="27" ry="18"/>
<text text-anchor="middle" x="505.457" y="-418.025" font-family="Times,serif" font-size="14.00">1&#39;0</text>
</g>
<!-- v22&#45;&gt;c20 -->
<g id="edge93" class="edge"><title>v22:e&#45;&gt;c20:p13:w</title>
<path fill="none" stroke="#7570b3" d="M533.457,-422.225C558.549,-422.225 567.248,-422.225 588.113,-422.225"/>
<polygon fill="#7570b3" stroke="#7570b3" points="588.268,-425.725 598.268,-422.225 588.268,-418.725 588.268,-425.725"/>
</g>
<!-- v23 -->
<g id="node34" class="node"><title>v23</title>
<ellipse fill="none" stroke="black" cx="505.457" cy="-368.225" rx="27" ry="18"/>
<text text-anchor="middle" x="505.457" y="-364.025" font-family="Times,serif" font-size="14.00">1&#39;0</text>
</g>
<!-- v23&#45;&gt;c20 -->
<g id="edge94" class="edge"><title>v23:e&#45;&gt;c20:p14:w</title>
<path fill="none" stroke="#66a61e" d="M533.457,-368.225C561.817,-368.225 565.578,-393.164 588.173,-399.01"/>
<polygon fill="#66a61e" stroke="#66a61e" points="587.921,-402.505 598.268,-400.225 588.758,-395.555 587.921,-402.505"/>
</g>
<!-- x24 -->
<g id="node37" class="node"><title>x24</title>
<path fill="none" stroke="black" d="M900.799,-407.225C900.799,-407.225 940.241,-407.225 940.241,-407.225 946.241,-407.225 952.241,-413.225 952.241,-419.225 952.241,-419.225 952.241,-431.225 952.241,-431.225 952.241,-437.225 946.241,-443.225 940.241,-443.225 940.241,-443.225 900.799,-443.225 900.799,-443.225 894.799,-443.225 888.799,-437.225 888.799,-431.225 888.799,-431.225 888.799,-419.225 888.799,-419.225 888.799,-413.225 894.799,-407.225 900.799,-407.225"/>
<text text-anchor="middle" x="920.52" y="-421.025" font-family="Times,serif" font-size="14.00">0:0 &#45; 1:1</text>
</g>
<!-- c20&#45;&gt;x24 -->
<g id="edge18" class="edge"><title>c20:p15:e&#45;&gt;x24:w</title>
<path fill="none" stroke="#a6761d" d="M740.293,-433.146C798.104,-432.367 818.936,-426.087 876.726,-425.305"/>
<polygon fill="none" stroke="#a6761d" points="740.268,-433.146 734.294,-437.185 728.268,-433.225 734.241,-429.186 740.268,-433.146"/>
<polygon fill="none" stroke="#a6761d" points="876.799,-425.304 882.773,-421.265 888.799,-425.225 882.826,-429.265 876.799,-425.304"/>
</g>
<!-- x20&#45;&gt;c20 -->
<g id="edge17" class="edge"><title>x20:e&#45;&gt;c20:p11:w</title>
<path fill="none" stroke="#1b9e77" d="M549.241,-528.596C569.979,-518.099 565.481,-479.243 586.281,-468.815"/>
<polygon fill="none" stroke="#1b9e77" points="548.903,-528.67 543.892,-533.856 537.178,-531.225 542.189,-526.039 548.903,-528.67"/>
<polygon fill="none" stroke="#1b9e77" points="586.539,-468.76 591.558,-463.583 598.268,-466.225 593.248,-471.402 586.539,-468.76"/>
</g>
<!-- n1 -->
<g id="node78" class="node"><title>n1</title>
<ellipse fill="black" stroke="black" cx="1402.1" cy="-422.225" rx="1.8" ry="1.8"/>
</g>
<!-- x24&#45;&gt;n1 -->
<g id="edge38" class="edge"><title>x24:s0:e&#45;&gt;n1:w</title>
<path fill="none" stroke="#1b9e77" d="M952.241,-425.225C1147.46,-425.225 1198.75,-422.327 1389.05,-422.228"/>
<polygon fill="#1b9e77" stroke="#1b9e77" points="1389.1,-425.728 1399.1,-422.225 1389.1,-418.728 1389.1,-425.728"/>
</g>
<!-- v25 -->
<g id="node38" class="node"><title>v25</title>
<ellipse fill="none" stroke="black" cx="505.457" cy="-314.225" rx="27" ry="18"/>
<text text-anchor="middle" x="505.457" y="-310.025" font-family="Times,serif" font-size="14.00">1&#39;0</text>
</g>
<!-- c21 -->
<g id="node41" class="node"><title>c21</title>
<polygon fill="none" stroke="black" points="577.847,-205.225 577.847,-293.225 748.689,-293.225 748.689,-205.225 577.847,-205.225"/>
<text text-anchor="middle" x="591.678" y="-278.025" font-family="Times,serif" font-size="14.00">I0</text>
<polyline fill="none" stroke="black" points="577.847,-271.225 605.509,-271.225 "/>
<text text-anchor="middle" x="591.678" y="-256.025" font-family="Times,serif" font-size="14.00">I1</text>
<polyline fill="none" stroke="black" points="577.847,-249.225 605.509,-249.225 "/>
<text text-anchor="middle" x="591.678" y="-234.025" font-family="Times,serif" font-size="14.00">I2</text>
<polyline fill="none" stroke="black" points="577.847,-227.225 605.509,-227.225 "/>
<text text-anchor="middle" x="591.678" y="-212.025" font-family="Times,serif" font-size="14.00">I3</text>
<polyline fill="none" stroke="black" points="605.509,-205.225 605.509,-293.225 "/>
<text text-anchor="middle" x="664.044" y="-252.025" font-family="Times,serif" font-size="14.00">$20.slice[0].adder</text>
<text text-anchor="middle" x="664.044" y="-238.025" font-family="Times,serif" font-size="14.00">SB_LUT4</text>
<polyline fill="none" stroke="black" points="722.578,-205.225 722.578,-293.225 "/>
<text text-anchor="middle" x="735.634" y="-245.025" font-family="Times,serif" font-size="14.00">O</text>
</g>
<!-- v25&#45;&gt;c21 -->
<g id="edge95" class="edge"><title>v25:e&#45;&gt;c21:p11:w</title>
<path fill="none" stroke="#1b9e77" d="M533.457,-314.225C553.614,-314.225 553.836,-291.864 567.452,-284.526"/>
<polygon fill="#1b9e77" stroke="#1b9e77" points="568.331,-287.915 577.268,-282.225 566.733,-281.1 568.331,-287.915"/>
</g>
<!-- v26 -->
<g id="node39" class="node"><title>v26</title>
<ellipse fill="none" stroke="black" cx="505.457" cy="-260.225" rx="27" ry="18"/>
<text text-anchor="middle" x="505.457" y="-256.025" font-family="Times,serif" font-size="14.00">1&#39;1</text>
</g>
<!-- v26&#45;&gt;c21 -->
<g id="edge96" class="edge"><title>v26:e&#45;&gt;c21:p12:w</title>
<path fill="none" stroke="#66a61e" d="M533.457,-260.225C548.974,-260.225 555.216,-260.225 566.965,-260.225"/>
<polygon fill="#66a61e" stroke="#66a61e" points="567.268,-263.725 577.268,-260.225 567.268,-256.725 567.268,-263.725"/>
</g>
<!-- v28 -->
<g id="node40" class="node"><title>v28</title>
<ellipse fill="none" stroke="black" cx="505.457" cy="-150.225" rx="27" ry="18"/>
<text text-anchor="middle" x="505.457" y="-146.025" font-family="Times,serif" font-size="14.00">1&#39;0</text>
</g>
<!-- v28&#45;&gt;c21 -->
<g id="edge97" class="edge"><title>v28:e&#45;&gt;c21:p14:w</title>
<path fill="none" stroke="#66a61e" d="M533.457,-150.225C564.677,-150.225 547.295,-202.119 567.503,-213.876"/>
<polygon fill="#66a61e" stroke="#66a61e" points="566.727,-217.289 577.268,-216.225 568.364,-210.483 566.727,-217.289"/>
</g>
<!-- x29 -->
<g id="node43" class="node"><title>x29</title>
<path fill="none" stroke="black" d="M900.799,-280.225C900.799,-280.225 940.241,-280.225 940.241,-280.225 946.241,-280.225 952.241,-286.225 952.241,-292.225 952.241,-292.225 952.241,-304.225 952.241,-304.225 952.241,-310.225 946.241,-316.225 940.241,-316.225 940.241,-316.225 900.799,-316.225 900.799,-316.225 894.799,-316.225 888.799,-310.225 888.799,-304.225 888.799,-304.225 888.799,-292.225 888.799,-292.225 888.799,-286.225 894.799,-280.225 900.799,-280.225"/>
<text text-anchor="middle" x="920.52" y="-294.025" font-family="Times,serif" font-size="14.00">0:0 &#45; 0:0</text>
</g>
<!-- c21&#45;&gt;x29 -->
<g id="edge20" class="edge"><title>c21:p15:e&#45;&gt;x29:w</title>
<path fill="none" stroke="#7570b3" d="M761.289,-249.809C812.409,-254.949 825.54,-292.379 876.544,-297.617"/>
<polygon fill="none" stroke="#7570b3" points="761.254,-249.808 755.067,-253.512 749.268,-249.225 755.455,-245.521 761.254,-249.808"/>
<polygon fill="none" stroke="#7570b3" points="876.814,-297.63 883.005,-293.933 888.799,-298.225 882.608,-301.923 876.814,-297.63"/>
</g>
<!-- x27&#45;&gt;c21 -->
<g id="edge19" class="edge"><title>x27:e&#45;&gt;c21:p13:w</title>
<path fill="none" stroke="#66a61e" d="M548.749,-209.271C556.115,-215.605 558.311,-227.792 565.658,-234.145"/>
<polygon fill="none" stroke="#66a61e" points="548.505,-209.186 541.521,-210.981 537.178,-205.225 544.162,-203.43 548.505,-209.186"/>
<polygon fill="none" stroke="#66a61e" points="565.946,-234.247 572.933,-232.462 577.268,-238.225 570.281,-240.01 565.946,-234.247"/>
</g>
<!-- x29&#45;&gt;n1 -->
<g id="edge39" class="edge"><title>x29:s0:e&#45;&gt;n1:w</title>
<path fill="none" stroke="#1b9e77" d="M952.241,-298.225C1154.93,-298.225 1191.8,-418.142 1388.98,-422.124"/>
<polygon fill="#1b9e77" stroke="#1b9e77" points="1389.07,-425.625 1399.1,-422.225 1389.14,-418.625 1389.07,-425.625"/>
</g>
<!-- v32 -->
<g id="node44" class="node"><title>v32</title>
<ellipse fill="none" stroke="black" cx="505.457" cy="-756.225" rx="27" ry="18"/>
<text text-anchor="middle" x="505.457" y="-752.025" font-family="Times,serif" font-size="14.00">1&#39;0</text>
</g>
<!-- c24 -->
<g id="node45" class="node"><title>c24</title>
<polygon fill="none" stroke="black" points="573.178,-706.225 573.178,-772.225 753.358,-772.225 753.358,-706.225 573.178,-706.225"/>
<text text-anchor="middle" x="588.178" y="-757.025" font-family="Times,serif" font-size="14.00">CI</text>
<polyline fill="none" stroke="black" points="573.178,-750.225 603.178,-750.225 "/>
<text text-anchor="middle" x="588.178" y="-735.025" font-family="Times,serif" font-size="14.00">I0</text>
<polyline fill="none" stroke="black" points="573.178,-728.225 603.178,-728.225 "/>
<text text-anchor="middle" x="588.178" y="-713.025" font-family="Times,serif" font-size="14.00">I1</text>
<polyline fill="none" stroke="black" points="603.178,-706.225 603.178,-772.225 "/>
<text text-anchor="middle" x="660.544" y="-742.025" font-family="Times,serif" font-size="14.00">$20.slice[1].carry</text>
<text text-anchor="middle" x="660.544" y="-728.025" font-family="Times,serif" font-size="14.00">SB_CARRY</text>
<polyline fill="none" stroke="black" points="717.909,-706.225 717.909,-772.225 "/>
<text text-anchor="middle" x="735.634" y="-735.025" font-family="Times,serif" font-size="14.00">CO</text>
</g>
<!-- v32&#45;&gt;c24 -->
<g id="edge99" class="edge"><title>v32:e&#45;&gt;c24:p11:w</title>
<path fill="none" stroke="#7570b3" d="M533.457,-756.225C548.609,-756.225 552.625,-745.641 563.078,-741.175"/>
<polygon fill="#7570b3" stroke="#7570b3" points="564.023,-744.557 573.178,-739.225 562.696,-737.684 564.023,-744.557"/>
</g>
<!-- x31 -->
<g id="node47" class="node"><title>x31</title>
<path fill="none" stroke="black" d="M801.358,-711.225C801.358,-711.225 840.799,-711.225 840.799,-711.225 846.799,-711.225 852.799,-717.225 852.799,-723.225 852.799,-723.225 852.799,-735.225 852.799,-735.225 852.799,-741.225 846.799,-747.225 840.799,-747.225 840.799,-747.225 801.358,-747.225 801.358,-747.225 795.358,-747.225 789.358,-741.225 789.358,-735.225 789.358,-735.225 789.358,-723.225 789.358,-723.225 789.358,-717.225 795.358,-711.225 801.358,-711.225"/>
<text text-anchor="middle" x="821.078" y="-725.025" font-family="Times,serif" font-size="14.00">0:0 &#45; 2:2</text>
</g>
<!-- c24&#45;&gt;x31 -->
<g id="edge22" class="edge"><title>c24:p23:e&#45;&gt;x31:w</title>
<path fill="none" stroke="#e7298a" d="M765.217,-737.104C769.622,-735.407 773.1,-733.039 777.506,-731.343"/>
<polygon fill="none" stroke="#e7298a" points="765.17,-737.113 759.968,-742.106 753.358,-739.225 758.56,-734.231 765.17,-737.113"/>
<polygon fill="none" stroke="#e7298a" points="777.545,-731.336 782.748,-726.343 789.358,-729.225 784.155,-734.218 777.545,-731.336"/>
</g>
<!-- x30&#45;&gt;c24 -->
<g id="edge21" class="edge"><title>x30:e&#45;&gt;c24:p22:w</title>
<path fill="none" stroke="#7570b3" d="M548.322,-806.611C556.609,-797.134 553.735,-775.564 561.918,-765.974"/>
<polygon fill="none" stroke="#7570b3" points="548.265,-806.634 544.252,-812.625 537.178,-811.225 541.191,-805.234 548.265,-806.634"/>
<polygon fill="none" stroke="#7570b3" points="562.121,-765.888 566.095,-759.871 573.178,-761.225 569.204,-767.242 562.121,-765.888"/>
</g>
<!-- x37 -->
<g id="node53" class="node"><title>x37</title>
<path fill="none" stroke="black" d="M900.799,-685.225C900.799,-685.225 940.241,-685.225 940.241,-685.225 946.241,-685.225 952.241,-691.225 952.241,-697.225 952.241,-697.225 952.241,-709.225 952.241,-709.225 952.241,-715.225 946.241,-721.225 940.241,-721.225 940.241,-721.225 900.799,-721.225 900.799,-721.225 894.799,-721.225 888.799,-715.225 888.799,-709.225 888.799,-709.225 888.799,-697.225 888.799,-697.225 888.799,-691.225 894.799,-685.225 900.799,-685.225"/>
<text text-anchor="middle" x="920.52" y="-699.025" font-family="Times,serif" font-size="14.00">2:2 &#45; 0:0</text>
</g>
<!-- x31&#45;&gt;x37 -->
<g id="edge53" class="edge"><title>x31:s0:e&#45;&gt;x37:s0:w</title>
<path fill="none" stroke="#7570b3" d="M852.799,-729.225C868.372,-729.225 869.495,-713.037 878.972,-706.208"/>
<polygon fill="#7570b3" stroke="#7570b3" points="880.247,-709.478 888.799,-703.225 878.214,-702.78 880.247,-709.478"/>
</g>
<!-- x33&#45;&gt;c24 -->
<g id="edge23" class="edge"><title>x33:e&#45;&gt;c24:p12:w</title>
<path fill="none" stroke="#e7298a" d="M549.017,-704.463C553.541,-707.239 556.822,-711.217 561.347,-713.992"/>
<polygon fill="none" stroke="#e7298a" points="548.753,-704.391 541.91,-706.666 537.178,-701.225 544.021,-698.95 548.753,-704.391"/>
<polygon fill="none" stroke="#e7298a" points="561.602,-714.062 568.445,-711.785 573.178,-717.225 566.336,-719.502 561.602,-714.062"/>
</g>
<!-- v34 -->
<g id="node49" class="node"><title>v34</title>
<ellipse fill="none" stroke="black" cx="920.52" cy="-812.225" rx="27" ry="18"/>
<text text-anchor="middle" x="920.52" y="-808.025" font-family="Times,serif" font-size="14.00">1&#39;0</text>
</g>
<!-- c25 -->
<g id="node51" class="node"><title>c25</title>
<polygon fill="none" stroke="black" points="988.241,-692.225 988.241,-780.225 1159.08,-780.225 1159.08,-692.225 988.241,-692.225"/>
<text text-anchor="middle" x="1002.07" y="-765.025" font-family="Times,serif" font-size="14.00">I0</text>
<polyline fill="none" stroke="black" points="988.241,-758.225 1015.9,-758.225 "/>
<text text-anchor="middle" x="1002.07" y="-743.025" font-family="Times,serif" font-size="14.00">I1</text>
<polyline fill="none" stroke="black" points="988.241,-736.225 1015.9,-736.225 "/>
<text text-anchor="middle" x="1002.07" y="-721.025" font-family="Times,serif" font-size="14.00">I2</text>
<polyline fill="none" stroke="black" points="988.241,-714.225 1015.9,-714.225 "/>
<text text-anchor="middle" x="1002.07" y="-699.025" font-family="Times,serif" font-size="14.00">I3</text>
<polyline fill="none" stroke="black" points="1015.9,-692.225 1015.9,-780.225 "/>
<text text-anchor="middle" x="1074.44" y="-739.025" font-family="Times,serif" font-size="14.00">$20.slice[2].adder</text>
<text text-anchor="middle" x="1074.44" y="-725.025" font-family="Times,serif" font-size="14.00">SB_LUT4</text>
<polyline fill="none" stroke="black" points="1132.97,-692.225 1132.97,-780.225 "/>
<text text-anchor="middle" x="1146.03" y="-732.025" font-family="Times,serif" font-size="14.00">O</text>
</g>
<!-- v34&#45;&gt;c25 -->
<g id="edge100" class="edge"><title>v34:e&#45;&gt;c25:p11:w</title>
<path fill="none" stroke="#66a61e" d="M948.52,-812.225C970.472,-812.225 965.136,-781.613 978.56,-772.046"/>
<polygon fill="#66a61e" stroke="#66a61e" points="979.619,-775.383 988.241,-769.225 977.661,-768.663 979.619,-775.383"/>
</g>
<!-- v35 -->
<g id="node50" class="node"><title>v35</title>
<ellipse fill="none" stroke="black" cx="920.52" cy="-758.225" rx="27" ry="18"/>
<text text-anchor="middle" x="920.52" y="-754.025" font-family="Times,serif" font-size="14.00">1&#39;0</text>
</g>
<!-- v35&#45;&gt;c25 -->
<g id="edge101" class="edge"><title>v35:e&#45;&gt;c25:p12:w</title>
<path fill="none" stroke="#e6ab02" d="M948.52,-758.225C962.831,-758.225 967.844,-751.511 978.087,-748.574"/>
<polygon fill="#e6ab02" stroke="#e6ab02" points="978.789,-752.012 988.241,-747.225 977.867,-745.072 978.789,-752.012"/>
</g>
<!-- x38 -->
<g id="node54" class="node"><title>x38</title>
<path fill="none" stroke="black" d="M1243.71,-478.225C1243.71,-478.225 1283.15,-478.225 1283.15,-478.225 1289.15,-478.225 1295.15,-484.225 1295.15,-490.225 1295.15,-490.225 1295.15,-502.225 1295.15,-502.225 1295.15,-508.225 1289.15,-514.225 1283.15,-514.225 1283.15,-514.225 1243.71,-514.225 1243.71,-514.225 1237.71,-514.225 1231.71,-508.225 1231.71,-502.225 1231.71,-502.225 1231.71,-490.225 1231.71,-490.225 1231.71,-484.225 1237.71,-478.225 1243.71,-478.225"/>
<text text-anchor="middle" x="1263.43" y="-492.025" font-family="Times,serif" font-size="14.00">0:0 &#45; 2:2</text>
</g>
<!-- c25&#45;&gt;x38 -->
<g id="edge26" class="edge"><title>c25:p15:e&#45;&gt;x38:w</title>
<path fill="none" stroke="#1b9e77" d="M1171.22,-735.102C1255.09,-718.117 1134.31,-514.025 1218.47,-497.312"/>
<polygon fill="none" stroke="#1b9e77" points="1171.03,-735.119 1165.43,-739.655 1159.08,-736.225 1164.69,-731.689 1171.03,-735.119"/>
<polygon fill="none" stroke="#1b9e77" points="1218.48,-497.312 1224.09,-492.785 1230.43,-496.225 1224.81,-500.752 1218.48,-497.312"/>
</g>
<!-- x36&#45;&gt;c25 -->
<g id="edge24" class="edge"><title>x36:e&#45;&gt;c25:p13:w</title>
<path fill="none" stroke="#e7298a" d="M865.088,-662.962C900.764,-661.465 917.652,-654.799 952.241,-675.225 971.214,-686.43 965.232,-711.978 976.439,-721.53"/>
<polygon fill="none" stroke="#e7298a" points="864.796,-662.968 858.883,-667.095 852.799,-663.225 858.712,-659.097 864.796,-662.968"/>
<polygon fill="none" stroke="#e7298a" points="976.789,-721.64 983.71,-719.615 988.241,-725.225 981.319,-727.25 976.789,-721.64"/>
</g>
<!-- x37&#45;&gt;c25 -->
<g id="edge25" class="edge"><title>x37:e&#45;&gt;c25:p14:w</title>
<path fill="none" stroke="#e7298a" d="M964.457,-703.225C968.534,-703.225 971.975,-703.225 976.055,-703.225"/>
<polygon fill="none" stroke="#e7298a" points="964.241,-703.225 958.24,-707.225 952.241,-703.225 958.241,-699.225 964.241,-703.225"/>
<polygon fill="none" stroke="#e7298a" points="976.241,-703.225 982.24,-699.225 988.241,-703.225 982.241,-707.225 976.241,-703.225"/>
</g>
<!-- x38&#45;&gt;n1 -->
<g id="edge40" class="edge"><title>x38:s0:e&#45;&gt;n1:w</title>
<path fill="none" stroke="#1b9e77" d="M1296.43,-496.225C1349.05,-496.225 1343.85,-431.457 1389.02,-423.108"/>
<polygon fill="#1b9e77" stroke="#1b9e77" points="1389.45,-426.583 1399.1,-422.225 1388.84,-419.61 1389.45,-426.583"/>
</g>
<!-- v40 -->
<g id="node55" class="node"><title>v40</title>
<ellipse fill="none" stroke="black" cx="1073.66" cy="-1712.23" rx="27" ry="18"/>
<text text-anchor="middle" x="1073.66" y="-1708.03" font-family="Times,serif" font-size="14.00">1&#39;1</text>
</g>
<!-- v40&#45;&gt;c30 -->
<g id="edge102" class="edge"><title>v40:e&#45;&gt;c30:p28:w</title>
<path fill="none" stroke="#a6761d" d="M1101.66,-1712.23C1129.86,-1712.23 1133.71,-1726.92 1159.08,-1739.23 1171.53,-1745.26 1175.56,-1752.73 1185.02,-1755.8"/>
<polygon fill="#a6761d" stroke="#a6761d" points="1184.69,-1759.29 1195.08,-1757.23 1185.67,-1752.36 1184.69,-1759.29"/>
</g>
<!-- c30&#45;&gt;n4 -->
<g id="edge54" class="edge"><title>c30:p29:e&#45;&gt;n4:w</title>
<path fill="none" stroke="#d95f02" d="M1331.77,-1779.23C1344,-1779.23 1348.97,-1783.16 1357.56,-1785.13"/>
<polygon fill="#d95f02" stroke="#d95f02" points="1357.46,-1788.64 1367.77,-1786.23 1358.2,-1781.68 1357.46,-1788.64"/>
</g>
<!-- x39 -->
<g id="node57" class="node"><title>x39</title>
<path fill="none" stroke="black" d="M1053.94,-1749.23C1053.94,-1749.23 1093.38,-1749.23 1093.38,-1749.23 1099.38,-1749.23 1105.38,-1755.23 1105.38,-1761.23 1105.38,-1761.23 1105.38,-1773.23 1105.38,-1773.23 1105.38,-1779.23 1099.38,-1785.23 1093.38,-1785.23 1093.38,-1785.23 1053.94,-1785.23 1053.94,-1785.23 1047.94,-1785.23 1041.94,-1779.23 1041.94,-1773.23 1041.94,-1773.23 1041.94,-1761.23 1041.94,-1761.23 1041.94,-1755.23 1047.94,-1749.23 1053.94,-1749.23"/>
<text text-anchor="middle" x="1073.66" y="-1763.03" font-family="Times,serif" font-size="14.00">0:0 &#45; 0:0</text>
</g>
<!-- x39&#45;&gt;c30 -->
<g id="edge27" class="edge"><title>x39:e&#45;&gt;c30:p27:w</title>
<path fill="none" stroke="#1b9e77" d="M1118.66,-1767.62C1144.92,-1769.45 1156.69,-1776.96 1182.89,-1778.81"/>
<polygon fill="none" stroke="#1b9e77" points="1118.65,-1767.62 1112.52,-1771.42 1106.66,-1767.23 1112.79,-1763.43 1118.65,-1767.62"/>
<polygon fill="none" stroke="#1b9e77" points="1183.09,-1778.82 1189.22,-1775.02 1195.08,-1779.23 1188.95,-1783.02 1183.09,-1778.82"/>
</g>
<!-- v42 -->
<g id="node58" class="node"><title>v42</title>
<ellipse fill="none" stroke="black" cx="1073.66" cy="-1564.23" rx="27" ry="18"/>
<text text-anchor="middle" x="1073.66" y="-1560.03" font-family="Times,serif" font-size="14.00">1&#39;1</text>
</g>
<!-- v42&#45;&gt;c31 -->
<g id="edge103" class="edge"><title>v42:e&#45;&gt;c31:p28:w</title>
<path fill="none" stroke="#a6761d" d="M1101.66,-1564.23C1129.86,-1564.23 1133.71,-1578.92 1159.08,-1591.23 1171.53,-1597.26 1175.56,-1604.73 1185.02,-1607.8"/>
<polygon fill="#a6761d" stroke="#a6761d" points="1184.69,-1611.29 1195.08,-1609.23 1185.67,-1604.36 1184.69,-1611.29"/>
</g>
<!-- c31&#45;&gt;n5 -->
<g id="edge56" class="edge"><title>c31:p29:e&#45;&gt;n5:w</title>
<path fill="none" stroke="#66a61e" d="M1331.77,-1631.23C1354.27,-1631.23 1345.45,-1665.4 1358.16,-1676.08"/>
<polygon fill="#66a61e" stroke="#66a61e" points="1357.18,-1679.44 1367.77,-1679.23 1359.36,-1672.79 1357.18,-1679.44"/>
</g>
<!-- x41 -->
<g id="node60" class="node"><title>x41</title>
<path fill="none" stroke="black" d="M1053.94,-1601.23C1053.94,-1601.23 1093.38,-1601.23 1093.38,-1601.23 1099.38,-1601.23 1105.38,-1607.23 1105.38,-1613.23 1105.38,-1613.23 1105.38,-1625.23 1105.38,-1625.23 1105.38,-1631.23 1099.38,-1637.23 1093.38,-1637.23 1093.38,-1637.23 1053.94,-1637.23 1053.94,-1637.23 1047.94,-1637.23 1041.94,-1631.23 1041.94,-1625.23 1041.94,-1625.23 1041.94,-1613.23 1041.94,-1613.23 1041.94,-1607.23 1047.94,-1601.23 1053.94,-1601.23"/>
<text text-anchor="middle" x="1073.66" y="-1615.03" font-family="Times,serif" font-size="14.00">1:1 &#45; 0:0</text>
</g>
<!-- x41&#45;&gt;c31 -->
<g id="edge28" class="edge"><title>x41:e&#45;&gt;c31:p27:w</title>
<path fill="none" stroke="#666666" d="M1118.66,-1619.62C1144.92,-1621.45 1156.69,-1628.96 1182.89,-1630.81"/>
<polygon fill="none" stroke="#666666" points="1118.65,-1619.62 1112.52,-1623.42 1106.66,-1619.23 1112.79,-1615.43 1118.65,-1619.62"/>
<polygon fill="none" stroke="#666666" points="1183.09,-1630.82 1189.22,-1627.02 1195.08,-1631.23 1188.95,-1635.02 1183.09,-1630.82"/>
</g>
<!-- v44 -->
<g id="node61" class="node"><title>v44</title>
<ellipse fill="none" stroke="black" cx="1073.66" cy="-2008.23" rx="27" ry="18"/>
<text text-anchor="middle" x="1073.66" y="-2004.03" font-family="Times,serif" font-size="14.00">1&#39;1</text>
</g>
<!-- v44&#45;&gt;c32 -->
<g id="edge104" class="edge"><title>v44:e&#45;&gt;c32:p28:w</title>
<path fill="none" stroke="#e7298a" d="M1101.66,-2008.23C1140.17,-2008.23 1151.14,-2021.59 1184.91,-2023.89"/>
<polygon fill="#e7298a" stroke="#e7298a" points="1184.97,-2027.39 1195.08,-2024.23 1185.2,-2020.4 1184.97,-2027.39"/>
</g>
<!-- c32&#45;&gt;n6 -->
<g id="edge58" class="edge"><title>c32:p29:e&#45;&gt;n6:w</title>
<path fill="none" stroke="#d95f02" d="M1331.77,-2046.23C1351.85,-2046.23 1346.73,-2018.11 1358.15,-2008.44"/>
<polygon fill="#d95f02" stroke="#d95f02" points="1359.4,-2011.72 1367.77,-2005.23 1357.18,-2005.08 1359.4,-2011.72"/>
</g>
<!-- x43 -->
<g id="node63" class="node"><title>x43</title>
<path fill="none" stroke="black" d="M1053.94,-2045.23C1053.94,-2045.23 1093.38,-2045.23 1093.38,-2045.23 1099.38,-2045.23 1105.38,-2051.23 1105.38,-2057.23 1105.38,-2057.23 1105.38,-2069.23 1105.38,-2069.23 1105.38,-2075.23 1099.38,-2081.23 1093.38,-2081.23 1093.38,-2081.23 1053.94,-2081.23 1053.94,-2081.23 1047.94,-2081.23 1041.94,-2075.23 1041.94,-2069.23 1041.94,-2069.23 1041.94,-2057.23 1041.94,-2057.23 1041.94,-2051.23 1047.94,-2045.23 1053.94,-2045.23"/>
<text text-anchor="middle" x="1073.66" y="-2059.03" font-family="Times,serif" font-size="14.00">2:2 &#45; 0:0</text>
</g>
<!-- x43&#45;&gt;c32 -->
<g id="edge29" class="edge"><title>x43:e&#45;&gt;c32:p27:w</title>
<path fill="none" stroke="#7570b3" d="M1118.74,-2062.66C1145.12,-2060.08 1156.5,-2049.43 1182.81,-2046.81"/>
<polygon fill="none" stroke="#7570b3" points="1118.65,-2062.66 1112.84,-2066.94 1106.66,-2063.23 1112.47,-2058.95 1118.65,-2062.66"/>
<polygon fill="none" stroke="#7570b3" points="1183.1,-2046.8 1188.9,-2042.52 1195.08,-2046.23 1189.28,-2050.51 1183.1,-2046.8"/>
</g>
<!-- v46 -->
<g id="node64" class="node"><title>v46</title>
<ellipse fill="none" stroke="black" cx="1073.66" cy="-1860.23" rx="27" ry="18"/>
<text text-anchor="middle" x="1073.66" y="-1856.03" font-family="Times,serif" font-size="14.00">1&#39;1</text>
</g>
<!-- v46&#45;&gt;c33 -->
<g id="edge105" class="edge"><title>v46:e&#45;&gt;c33:p28:w</title>
<path fill="none" stroke="#66a61e" d="M1101.66,-1860.23C1140.17,-1860.23 1151.14,-1873.59 1184.91,-1875.89"/>
<polygon fill="#66a61e" stroke="#66a61e" points="1184.97,-1879.39 1195.08,-1876.23 1185.2,-1872.4 1184.97,-1879.39"/>
</g>
<!-- c33&#45;&gt;n7 -->
<g id="edge60" class="edge"><title>c33:p29:e&#45;&gt;n7:w</title>
<path fill="none" stroke="#d95f02" d="M1331.77,-1898.23C1344,-1898.23 1348.97,-1894.29 1357.56,-1892.32"/>
<polygon fill="#d95f02" stroke="#d95f02" points="1358.2,-1895.77 1367.77,-1891.23 1357.46,-1888.81 1358.2,-1895.77"/>
</g>
<!-- x45 -->
<g id="node66" class="node"><title>x45</title>
<path fill="none" stroke="black" d="M1053.94,-1897.23C1053.94,-1897.23 1093.38,-1897.23 1093.38,-1897.23 1099.38,-1897.23 1105.38,-1903.23 1105.38,-1909.23 1105.38,-1909.23 1105.38,-1921.23 1105.38,-1921.23 1105.38,-1927.23 1099.38,-1933.23 1093.38,-1933.23 1093.38,-1933.23 1053.94,-1933.23 1053.94,-1933.23 1047.94,-1933.23 1041.94,-1927.23 1041.94,-1921.23 1041.94,-1921.23 1041.94,-1909.23 1041.94,-1909.23 1041.94,-1903.23 1047.94,-1897.23 1053.94,-1897.23"/>
<text text-anchor="middle" x="1073.66" y="-1911.03" font-family="Times,serif" font-size="14.00">3:3 &#45; 0:0</text>
</g>
<!-- x45&#45;&gt;c33 -->
<g id="edge30" class="edge"><title>x45:e&#45;&gt;c33:p27:w</title>
<path fill="none" stroke="#d95f02" d="M1118.74,-1914.66C1145.12,-1912.08 1156.5,-1901.43 1182.81,-1898.81"/>
<polygon fill="none" stroke="#d95f02" points="1118.65,-1914.66 1112.84,-1918.94 1106.66,-1915.23 1112.47,-1910.95 1118.65,-1914.66"/>
<polygon fill="none" stroke="#d95f02" points="1183.1,-1898.8 1188.9,-1894.52 1195.08,-1898.23 1189.28,-1902.51 1183.1,-1898.8"/>
</g>
<!-- x48 -->
<g id="node69" class="node"><title>x48</title>
<path fill="none" stroke="black" d="M266.138,-1024.23C266.138,-1024.23 305.579,-1024.23 305.579,-1024.23 311.579,-1024.23 317.579,-1030.23 317.579,-1036.23 317.579,-1036.23 317.579,-1048.23 317.579,-1048.23 317.579,-1054.23 311.579,-1060.23 305.579,-1060.23 305.579,-1060.23 266.138,-1060.23 266.138,-1060.23 260.138,-1060.23 254.138,-1054.23 254.138,-1048.23 254.138,-1048.23 254.138,-1036.23 254.138,-1036.23 254.138,-1030.23 260.138,-1024.23 266.138,-1024.23"/>
<text text-anchor="middle" x="285.858" y="-1038.03" font-family="Times,serif" font-size="14.00">0:0 &#45; 0:0</text>
</g>
<!-- c34&#45;&gt;x48 -->
<g id="edge32" class="edge"><title>c34:p29:e&#45;&gt;x48:w</title>
<path fill="none" stroke="#a6761d" d="M230.354,-1042.23C234.431,-1042.23 237.872,-1042.23 241.953,-1042.23"/>
<polygon fill="none" stroke="#a6761d" points="230.138,-1042.23 224.138,-1046.23 218.138,-1042.23 224.138,-1038.23 230.138,-1042.23"/>
<polygon fill="none" stroke="#a6761d" points="242.138,-1042.23 248.138,-1038.23 254.138,-1042.23 248.138,-1046.23 242.138,-1042.23"/>
</g>
<!-- x47 -->
<g id="node68" class="node"><title>x47</title>
<path fill="none" stroke="black" d="M1484.44,-217.225C1484.44,-217.225 1523.88,-217.225 1523.88,-217.225 1529.88,-217.225 1535.88,-223.225 1535.88,-229.225 1535.88,-229.225 1535.88,-241.225 1535.88,-241.225 1535.88,-247.225 1529.88,-253.225 1523.88,-253.225 1523.88,-253.225 1484.44,-253.225 1484.44,-253.225 1478.44,-253.225 1472.44,-247.225 1472.44,-241.225 1472.44,-241.225 1472.44,-229.225 1472.44,-229.225 1472.44,-223.225 1478.44,-217.225 1484.44,-217.225"/>
<text text-anchor="middle" x="1504.16" y="-231.025" font-family="Times,serif" font-size="14.00">0:0 &#45; 0:0</text>
</g>
<!-- x47&#45;&gt;c34 -->
<g id="edge31" class="edge"><title>x47:e&#45;&gt;c34:p27:w</title>
<path fill="none" stroke="#7570b3" d="M1543.83,-245.203C1540.23,-255.723 1519.37,-268.841 1472.44,-253.725 1364.07,-218.822 1378.28,-104.225 1264.43,-104.225 394.658,-104.225 394.658,-104.225 394.658,-104.225 343.821,-104.225 72.0594,-918.971 82.9688,-1020.81"/>
<polygon fill="none" stroke="#7570b3" points="1543.83,-245.201 1537.17,-242.436 1537.16,-235.225 1543.82,-237.99 1543.83,-245.201"/>
<polygon fill="none" stroke="#7570b3" points="83.0022,-1020.87 89.4867,-1024.03 89.0688,-1031.23 82.5843,-1028.07 83.0022,-1020.87"/>
</g>
<!-- x48&#45;&gt;n9 -->
<g id="edge69" class="edge"><title>x48:s0:e&#45;&gt;n9:w</title>
<path fill="none" stroke="#d95f02" d="M317.579,-1042.23C329.579,-1042.23 334.829,-1042.23 343.454,-1042.23"/>
<polygon fill="#d95f02" stroke="#d95f02" points="343.579,-1045.73 353.579,-1042.23 343.579,-1038.73 343.579,-1045.73"/>
</g>
<!-- x51 -->
<g id="node73" class="node"><title>x51</title>
<path fill="none" stroke="black" d="M1756.57,-562.225C1756.57,-562.225 1796.01,-562.225 1796.01,-562.225 1802.01,-562.225 1808.01,-568.225 1808.01,-574.225 1808.01,-574.225 1808.01,-586.225 1808.01,-586.225 1808.01,-592.225 1802.01,-598.225 1796.01,-598.225 1796.01,-598.225 1756.57,-598.225 1756.57,-598.225 1750.57,-598.225 1744.57,-592.225 1744.57,-586.225 1744.57,-586.225 1744.57,-574.225 1744.57,-574.225 1744.57,-568.225 1750.57,-562.225 1756.57,-562.225"/>
<text text-anchor="middle" x="1776.29" y="-576.025" font-family="Times,serif" font-size="14.00">0:0 &#45; 1:1</text>
</g>
<!-- c35&#45;&gt;x51 -->
<g id="edge35" class="edge"><title>c35:p29:e&#45;&gt;x51:w</title>
<path fill="none" stroke="#66a61e" d="M1719.69,-549.801C1725.93,-556.471 1727.16,-568.803 1733.34,-575.537"/>
<polygon fill="none" stroke="#66a61e" points="1719.66,-549.791 1712.59,-551.207 1708.57,-545.225 1715.64,-543.809 1719.66,-549.791"/>
<polygon fill="none" stroke="#66a61e" points="1733.49,-575.6 1740.57,-574.222 1744.57,-580.225 1737.49,-581.604 1733.49,-575.6"/>
</g>
<!-- x49 -->
<g id="node71" class="node"><title>x49</title>
<path fill="none" stroke="black" d="M1484.44,-551.225C1484.44,-551.225 1523.88,-551.225 1523.88,-551.225 1529.88,-551.225 1535.88,-557.225 1535.88,-563.225 1535.88,-563.225 1535.88,-575.225 1535.88,-575.225 1535.88,-581.225 1529.88,-587.225 1523.88,-587.225 1523.88,-587.225 1484.44,-587.225 1484.44,-587.225 1478.44,-587.225 1472.44,-581.225 1472.44,-575.225 1472.44,-575.225 1472.44,-563.225 1472.44,-563.225 1472.44,-557.225 1478.44,-551.225 1484.44,-551.225"/>
<text text-anchor="middle" x="1504.16" y="-565.025" font-family="Times,serif" font-size="14.00">1:1 &#45; 0:0</text>
</g>
<!-- x49&#45;&gt;c35 -->
<g id="edge33" class="edge"><title>x49:e&#45;&gt;c35:p27:w</title>
<path fill="none" stroke="#1b9e77" d="M1547.42,-565.045C1552.49,-560.64 1555.31,-553.744 1560.39,-549.358"/>
<polygon fill="none" stroke="#1b9e77" points="1547.16,-565.14 1542.88,-570.943 1535.88,-569.225 1540.16,-563.421 1547.16,-565.14"/>
<polygon fill="none" stroke="#1b9e77" points="1560.59,-549.286 1564.88,-543.492 1571.88,-545.225 1567.59,-551.02 1560.59,-549.286"/>
</g>
<!-- x50&#45;&gt;c35 -->
<g id="edge34" class="edge"><title>x50:e&#45;&gt;c35:p28:w</title>
<path fill="none" stroke="#666666" d="M1547.96,-516.222C1552.18,-517.714 1555.59,-519.743 1559.81,-521.233"/>
<polygon fill="none" stroke="#666666" points="1547.72,-516.182 1541.15,-519.15 1535.88,-514.225 1542.45,-511.257 1547.72,-516.182"/>
<polygon fill="none" stroke="#666666" points="1560.04,-521.271 1566.61,-518.301 1571.88,-523.225 1565.31,-526.195 1560.04,-521.271"/>
</g>
<!-- x51&#45;&gt;n9 -->
<g id="edge70" class="edge"><title>x51:s0:e&#45;&gt;n9:w</title>
<path fill="none" stroke="#d95f02" d="M1809.29,-580.225C1817.52,-580.225 1814.1,-592.892 1808.29,-598.725 1713.04,-694.323 1640.11,-616.225 1505.16,-616.225 662.268,-616.225 662.268,-616.225 662.268,-616.225 577.351,-616.225 531.457,-584.941 473.737,-647.225 411.116,-714.796 505.649,-997.975 437.737,-1060.23 410.19,-1085.48 380.804,-1085.91 353.658,-1060.23 351.293,-1057.99 349.362,-1054.6 348.441,-1051.36"/>
<polygon fill="#d95f02" stroke="#d95f02" points="351.644,-1052.77 352.658,-1042.23 345.289,-1049.84 351.644,-1052.77"/>
</g>
<!-- x53 -->
<g id="node76" class="node"><title>x53</title>
<path fill="none" stroke="black" d="M1756.57,-424.225C1756.57,-424.225 1796.01,-424.225 1796.01,-424.225 1802.01,-424.225 1808.01,-430.225 1808.01,-436.225 1808.01,-436.225 1808.01,-448.225 1808.01,-448.225 1808.01,-454.225 1802.01,-460.225 1796.01,-460.225 1796.01,-460.225 1756.57,-460.225 1756.57,-460.225 1750.57,-460.225 1744.57,-454.225 1744.57,-448.225 1744.57,-448.225 1744.57,-436.225 1744.57,-436.225 1744.57,-430.225 1750.57,-424.225 1756.57,-424.225"/>
<text text-anchor="middle" x="1776.29" y="-438.025" font-family="Times,serif" font-size="14.00">0:0 &#45; 2:2</text>
</g>
<!-- c36&#45;&gt;x53 -->
<g id="edge37" class="edge"><title>c36:p29:e&#45;&gt;x53:w</title>
<path fill="none" stroke="#d95f02" d="M1716.69,-419.84C1723.27,-424.752 1726.4,-433.49 1732.92,-438.472"/>
<polygon fill="none" stroke="#d95f02" points="1716.67,-419.834 1709.74,-421.844 1705.22,-416.225 1712.15,-414.215 1716.67,-419.834"/>
<polygon fill="none" stroke="#d95f02" points="1733.15,-438.545 1740.08,-436.578 1744.57,-442.225 1737.63,-444.192 1733.15,-438.545"/>
</g>
<!-- x52 -->
<g id="node75" class="node"><title>x52</title>
<path fill="none" stroke="black" d="M1484.44,-394.225C1484.44,-394.225 1523.88,-394.225 1523.88,-394.225 1529.88,-394.225 1535.88,-400.225 1535.88,-406.225 1535.88,-406.225 1535.88,-418.225 1535.88,-418.225 1535.88,-424.225 1529.88,-430.225 1523.88,-430.225 1523.88,-430.225 1484.44,-430.225 1484.44,-430.225 1478.44,-430.225 1472.44,-424.225 1472.44,-418.225 1472.44,-418.225 1472.44,-406.225 1472.44,-406.225 1472.44,-400.225 1478.44,-394.225 1484.44,-394.225"/>
<text text-anchor="middle" x="1504.16" y="-408.025" font-family="Times,serif" font-size="14.00">2:2 &#45; 0:0</text>
</g>
<!-- x52&#45;&gt;c36 -->
<g id="edge36" class="edge"><title>x52:e&#45;&gt;c36:p27:w</title>
<path fill="none" stroke="#1b9e77" d="M1547.89,-410.941C1553.44,-409.678 1557.69,-407.761 1563.25,-406.501"/>
<polygon fill="none" stroke="#1b9e77" points="1547.81,-410.95 1542.27,-415.565 1535.88,-412.225 1541.42,-407.61 1547.81,-410.95"/>
<polygon fill="none" stroke="#1b9e77" points="1563.29,-406.496 1568.83,-401.883 1575.22,-405.225 1569.68,-409.838 1563.29,-406.496"/>
</g>
<!-- x53&#45;&gt;n9 -->
<g id="edge71" class="edge"><title>x53:s0:e&#45;&gt;n9:w</title>
<path fill="none" stroke="#d95f02" d="M1809.29,-442.225C1817.52,-442.225 1814.05,-454.84 1808.29,-460.725 1755.94,-514.224 1546.25,-473.821 1472.44,-486.225 1408.69,-496.938 1395.41,-511.854 1331.77,-523.225 1143.19,-556.922 608.016,-469.602 473.737,-606.225 402.795,-678.405 512.074,-991.549 437.737,-1060.23 410.289,-1085.58 380.804,-1085.91 353.658,-1060.23 351.293,-1057.99 349.362,-1054.6 348.441,-1051.36"/>
<polygon fill="#d95f02" stroke="#d95f02" points="351.644,-1052.77 352.658,-1042.23 345.289,-1049.84 351.644,-1052.77"/>
</g>
<!-- x54&#45;&gt;n10 -->
<g id="edge44" class="edge"><title>x54:e&#45;&gt;n10:w</title>
<path fill="none" stroke="#1b9e77" stroke-width="3" d="M1535.88,-1845.23C1560.79,-1845.23 1569.43,-1845.23 1590.14,-1845.23"/>
<polygon fill="#1b9e77" stroke="#1b9e77" stroke-width="3" points="1590.22,-1848.73 1600.22,-1845.23 1590.22,-1841.73 1590.22,-1848.73"/>
</g>
<!-- n1&#45;&gt;x47 -->
<g id="edge41" class="edge"><title>n1:e&#45;&gt;x47:s0:w</title>
<path fill="none" stroke="#1b9e77" d="M1405.1,-422.225C1489.64,-422.225 1393.13,-250.95 1462.11,-236.231"/>
<polygon fill="#1b9e77" stroke="#1b9e77" points="1462.82,-239.679 1472.44,-235.225 1462.14,-232.712 1462.82,-239.679"/>
</g>
<!-- n1&#45;&gt;x49 -->
<g id="edge42" class="edge"><title>n1:e&#45;&gt;x49:s0:w</title>
<path fill="none" stroke="#1b9e77" d="M1405.1,-422.225C1473.18,-422.225 1408.22,-554.13 1462.26,-568.042"/>
<polygon fill="#1b9e77" stroke="#1b9e77" points="1462.1,-571.546 1472.44,-569.225 1462.91,-564.593 1462.1,-571.546"/>
</g>
<!-- n1&#45;&gt;x52 -->
<g id="edge43" class="edge"><title>n1:e&#45;&gt;x52:s0:w</title>
<path fill="none" stroke="#1b9e77" d="M1405.1,-422.225C1431.69,-422.225 1440.19,-414.5 1462.39,-412.629"/>
<polygon fill="#1b9e77" stroke="#1b9e77" points="1462.59,-416.125 1472.44,-412.225 1462.3,-409.13 1462.59,-416.125"/>
</g>
<!-- n2&#45;&gt;x39 -->
<g id="edge49" class="edge"><title>n2:e&#45;&gt;x39:s0:w</title>
<path fill="none" stroke="#66a61e" d="M923.52,-1622.23C982.945,-1622.23 945.913,-1697.51 988.241,-1739.23 1004.41,-1755.16 1011.99,-1764.38 1030.57,-1766.66"/>
<polygon fill="#66a61e" stroke="#66a61e" points="1030.48,-1770.17 1040.66,-1767.23 1030.87,-1763.18 1030.48,-1770.17"/>
</g>
<!-- n2&#45;&gt;x41 -->
<g id="edge50" class="edge"><title>n2:e&#45;&gt;x41:s0:w</title>
<path fill="none" stroke="#66a61e" d="M923.52,-1622.23C972.04,-1622.23 986.624,-1619.62 1030.5,-1619.27"/>
<polygon fill="#66a61e" stroke="#66a61e" points="1030.68,-1622.76 1040.66,-1619.23 1030.65,-1615.76 1030.68,-1622.76"/>
</g>
<!-- n2&#45;&gt;x43 -->
<g id="edge51" class="edge"><title>n2:e&#45;&gt;x43:s0:w</title>
<path fill="none" stroke="#66a61e" d="M923.52,-1622.23C1016.42,-1622.23 934.428,-1959.5 988.241,-2035.23 1001.45,-2053.81 1011.23,-2061.17 1030.66,-2062.84"/>
<polygon fill="#66a61e" stroke="#66a61e" points="1030.53,-2066.34 1040.66,-2063.23 1030.8,-2059.34 1030.53,-2066.34"/>
</g>
<!-- n2&#45;&gt;x45 -->
<g id="edge52" class="edge"><title>n2:e&#45;&gt;x45:s0:w</title>
<path fill="none" stroke="#66a61e" d="M923.52,-1622.23C1044.76,-1622.23 913.918,-1791.44 988.241,-1887.23 1002.16,-1905.16 1011.36,-1912.95 1030.44,-1914.78"/>
<polygon fill="#66a61e" stroke="#66a61e" points="1030.52,-1918.29 1040.66,-1915.23 1030.82,-1911.3 1030.52,-1918.29"/>
</g>
</g>
</svg>
